MORPH_OSP_CirqueDeLAlphabet.ufo
<glyph name="A" format="1">
  <advance width="722"/>
  <unicode hex="0041"/>
  <outline>
    <contour>
      <point x="779.910234803" y="223.553974986" type="curve"/>
      <point x="776.6" y="206.453974986" type="line"/>
      <point x="496.1" y="131.884904701" type="line"/>
      <point x="499.410234803" y="148.984904701" type="line"/>
      <point x="557.884457687" y="165.383574211"/>
      <point x="577.978240762" y="177.554845564"/>
      <point x="582.333812871" y="200.054845564" type="curve" smooth="yes"/>
      <point x="584.772933252" y="212.654845564"/>
      <point x="581.602728245" y="234.007851477"/>
      <point x="573.106746123" y="254.798718758" type="curve" smooth="yes"/>
      <point x="544.732143021" y="329.209181967" type="line"/>
      <point x="256.532143021" y="252.593117595" type="line"/>
      <point x="185.548065551" y="133.841442171" type="line" smooth="yes"/>
      <point x="177.783168055" y="120.679303538"/>
      <point x="172.044047674" y="107.202020358"/>
      <point x="169.953373061" y="96.4020203584" type="curve" smooth="yes"/>
      <point x="165.075132299" y="71.2020203584"/>
      <point x="184.810234803" y="65.3505748906"/>
      <point x="237.610234803" y="79.3871057678" type="curve"/>
      <point x="234.3" y="62.2871057678" type="line"/>
      <point x="16.5" y="4.38641589914" type="line"/>
      <point x="19.8102348028" y="21.4864158991" type="line"/>
      <point x="72.9586805715" y="37.3229467764"/>
      <point x="88.9462467212" y="55.2320794957"/>
      <point x="184.782787837" y="205.347453999" type="curve"/>
      <point x="499.126224057" y="708.072421134" type="line"/>
      <point x="521.126224057" y="713.920975666" type="line"/>
      <point x="696.067625742" y="275.535479592" type="line"/>
      <point x="721.675132299" y="219.170450023"/>
      <point x="730.932903456" y="213.094727289"/>
    </contour>
    <contour>
      <point x="282.37528128" y="294.464388948" type="line"/>
      <point x="536.47528128" y="362.015193794" type="line"/>
      <point x="456.786574478" y="575.593577508" type="line"/>
    </contour>
  </outline>
</glyph>
<glyph name="B" format="1">
  <advance width="667"/>
  <unicode hex="0042"/>
  <outline>
    <contour>
      <point x="-76.6355494443" y="516.273671644" type="line"/>
      <point x="231.364450556" y="672.018236809" type="line" smooth="yes"/>
      <point x="421.664450556" y="768.246128857"/>
      <point x="529.669377848" y="773.34667916"/>
      <point x="549.182340896" y="687.601077678" type="curve" smooth="yes"/>
      <point x="556.325479155" y="656.21206285"/>
      <point x="546.271725876" y="619.541932084"/>
      <point x="522.604629332" y="588.793281332" type="curve" smooth="yes"/>
      <point x="499.863309904" y="559.366446897"/>
      <point x="478.505538747" y="540.029747234"/>
      <point x="423.570436244" y="501.153142103" type="curve"/>
      <point x="497.858002393" y="525.058758805"/>
      <point x="529.648677006" y="530.889956001"/>
      <point x="567.352694883" y="526.906059054" type="curve" smooth="yes"/>
      <point x="606.50515853" y="521.947221243"/>
      <point x="633.274073904" y="501.33594276"/>
      <point x="640.939880816" y="467.650170749" type="curve" smooth="yes"/>
      <point x="649.302579265" y="430.902055828"/>
      <point x="635.142609061" y="385.326086292"/>
      <point x="601.11774136" y="340.803041776" type="curve" smooth="yes"/>
      <point x="566.341319429" y="294.192595215"/>
      <point x="491.9" y="238.622923056"/>
      <point x="406.1" y="195.236937046" type="curve" smooth="yes"/>
      <point x="38.7" y="9.45592002787" type="line"/>
      <point x="35.3897651972" y="24.0020488507" type="line"/>
      <point x="126.167096544" y="72.4659449929"/>
      <point x="138.202199048" y="89.649557119"/>
      <point x="125.309705605" y="146.302900955" type="curve" smooth="yes"/>
      <point x="47.9547449506" y="486.222963973" type="line" smooth="yes"/>
      <point x="35.0622515082" y="542.876307809"/>
      <point x="19.9457997802" y="544.622983733"/>
      <point x="-73.3253146415" y="501.727542821" type="curve"/>
    </contour>
    <contour>
      <point x="199.7033397" y="369.170523994" type="curve"/>
      <point x="242.91061502" y="179.305263569" type="line" smooth="yes"/>
      <point x="248.48574732" y="154.806520289"/>
      <point x="265.453753279" y="155.703476999"/>
      <point x="319.353753279" y="182.958775903" type="curve" smooth="yes"/>
      <point x="391.953753279" y="219.669994835"/>
      <point x="435.659970204" y="248.60013484"/>
      <point x="467.723958286" y="280.180056811" type="curve" smooth="yes"/>
      <point x="507.716831945" y="320.037752139"/>
      <point x="524.022139455" y="361.5764379"/>
      <point x="514.6141037" y="402.918067186" type="curve" smooth="yes"/>
      <point x="503.638061986" y="451.149968019"/>
      <point x="466.969146611" y="466.755171193"/>
      <point x="400.087797387" y="453.424085031" type="curve" smooth="yes"/>
      <point x="357.874454121" y="444.883569708"/>
      <point x="306.4033397" y="423.124891211"/>
    </contour>
    <contour>
      <point x="192.734424325" y="399.793953094" type="line"/>
      <point x="297.234424325" y="452.635859132" type="line" smooth="yes"/>
      <point x="400.634424325" y="504.921534581"/>
      <point x="451.268617414" y="568.087527855"/>
      <point x="437.679232434" y="627.803214601" type="curve" smooth="yes"/>
      <point x="422.173395726" y="695.94034435"/>
      <point x="346.710697277" y="698.758393288"/>
      <point x="220.210697277" y="634.791875453" type="curve" smooth="yes"/>
      <point x="171.810697277" y="610.317729498" type="line" smooth="yes"/>
      <point x="155.310697277" y="601.97427065"/>
      <point x="149.178703236" y="591.190384973"/>
      <point x="152.837383808" y="575.113084696" type="curve" smooth="yes"/>
    </contour>
  </outline>
</glyph>
<glyph name="C" format="1">
  <advance width="667"/>
  <unicode hex="0043"/>
  <outline>
    <contour>
      <point x="760.400297961" y="586.305190498" type="line"/>
      <point x="735.100297961" y="579.579352786" type="line"/>
      <point x="725.524785444" y="632.52322598"/>
      <point x="713.903026206" y="653.336810081"/>
      <point x="684.278158505" y="672.77912283" type="curve" smooth="yes"/>
      <point x="647.24707388" y="697.082013765"/>
      <point x="593.705754451" y="700.775771982"/>
      <point x="531.005754451" y="684.107391565" type="curve" smooth="yes"/>
      <point x="371.505754451" y="641.705371206"/>
      <point x="248.821676981" y="509.209592632"/>
      <point x="217.287334913" y="346.309592632" type="curve" smooth="yes"/>
      <point x="197.948594749" y="246.409592632"/>
      <point x="216.368535157" y="174.474852157"/>
      <point x="268.331613823" y="146.45837712" type="curve" smooth="yes"/>
      <point x="309.011144218" y="124.832769364"/>
      <point x="367.126686531" y="123.208722055"/>
      <point x="436.426686531" y="141.631668831" type="curve" smooth="yes"/>
      <point x="527.726686531" y="165.90317014"/>
      <point x="605.553373061" y="212.203400096"/>
      <point x="699.323197851" y="297.743051865" type="curve"/>
      <point x="715.987185932" y="286.806750944" type="line"/>
      <point x="634.775132299" y="196.068659621"/>
      <point x="517.860879619" y="125.718314686"/>
      <point x="393.560879619" y="92.6739815795" type="curve" smooth="yes"/>
      <point x="284.660879619" y="63.7236366451"/>
      <point x="190.081349225" y="71.020285797"/>
      <point x="135.405836708" y="111.9746222" type="curve"/>
      <point x="89.2365411161" y="148.360808143"/>
      <point x="71.2197091708" y="216.987976345"/>
      <point x="87.422437416" y="300.687976345" type="curve" smooth="yes"/>
      <point x="106.586954695" y="399.687976345"/>
      <point x="164.58968294" y="494.500229956"/>
      <point x="252.391501771" y="570.770170819" type="curve" smooth="yes"/>
      <point x="330.17376041" y="638.400689869"/>
      <point x="426.874669825" y="690.572191177"/>
      <point x="517.074669825" y="714.551264759" type="curve" smooth="yes"/>
      <point x="568.774669825" y="728.29536791"/>
      <point x="622.38088675" y="735.71675424"/>
      <point x="673.493320601" y="735.645712844" type="curve"/>
      <point x="688.947983295" y="734.632128743"/>
      <point x="704.925314642" y="736.318544643"/>
      <point x="714.825314642" y="738.950394182" type="curve" smooth="yes"/>
      <point x="736.825314642" y="744.798948714"/>
      <point x="756.515989254" y="760.27779234"/>
      <point x="766.774669825" y="780.9323587" type="curve"/>
      <point x="789.874669825" y="787.073340958" type="line"/>
    </contour>
  </outline>
</glyph>
<glyph name="D" format="1">
  <advance width="722"/>
  <unicode hex="0044"/>
  <outline>
    <contour>
      <point x="115.409705605" y="141.296825646" type="curve" smooth="yes"/>
      <point x="38.0547449506" y="481.216888664" type="line" smooth="yes"/>
      <point x="25.1622515082" y="537.8702325"/>
      <point x="13.694245549" y="539.754428739"/>
      <point x="-74.4253146415" y="501.171312231" type="curve"/>
      <point x="-77.7355494443" y="515.717441054" type="line"/>
      <point x="219.264450556" y="665.89970032" type="line" smooth="yes"/>
      <point x="369.964450556" y="742.103291133"/>
      <point x="496.136474393" y="775.171339239"/>
      <point x="582.957853413" y="760.169604152" type="curve" smooth="yes"/>
      <point x="653.040112053" y="748.655071582"/>
      <point x="699.629497033" y="705.626302531"/>
      <point x="715.309556625" y="636.723587055" type="curve" smooth="yes"/>
      <point x="732.209176407" y="562.461771486"/>
      <point x="707.015013115" y="473.744109911"/>
      <point x="645.794163292" y="392.419563646" type="curve" smooth="yes"/>
      <point x="587.350644816" y="315.060466333"/>
      <point x="477.6" y="231.391925388"/>
      <point x="350.0" y="166.869176962" type="curve" smooth="yes"/>
      <point x="37.6" y="8.899689438" type="line"/>
      <point x="34.2897651972" y="23.4458182608" type="line"/>
      <point x="117.018650775" y="69.5472717289"/>
      <point x="127.953753279" y="86.1746532651"/>
    </contour>
    <contour>
      <point x="144.505389767" y="563.216737839" type="curve" smooth="yes"/>
      <point x="233.01061502" y="174.299188261" type="line" smooth="yes"/>
      <point x="238.58574732" y="149.80044498"/>
      <point x="253.353753279" y="149.584940511"/>
      <point x="297.353753279" y="171.834164106" type="curve" smooth="yes"/>
      <point x="393.053753279" y="220.226225425"/>
      <point x="454.763078667" y="261.674628368"/>
      <point x="505.81061502" y="312.24437455" type="curve" smooth="yes"/>
      <point x="586.722139455" y="393.281581523"/>
      <point x="617.187417169" y="480.396236819"/>
      <point x="596.629116815" y="570.735352666" type="curve" smooth="yes"/>
      <point x="577.813045305" y="653.418611238"/>
      <point x="517.72987725" y="696.453529619"/>
      <point x="422.521841495" y="694.409172895" type="curve" smooth="yes"/>
      <point x="363.798263427" y="693.740019317"/>
      <point x="289.510697277" y="669.834402615"/>
      <point x="194.910697277" y="621.998571886" type="curve" smooth="yes"/>
      <point x="149.810697277" y="599.193117701"/>
      <point x="139.104480352" y="586.949895392"/>
    </contour>
  </outline>
</glyph>
<glyph name="E" format="1">
  <advance width="611"/>
  <unicode hex="0045"/>
  <outline>
    <contour>
      <point x="686.143667456" y="326.679352786" type="line"/>
      <point x="607.2" y="161.420105089" type="line"/>
      <point x="13.2" y="3.50913271932" type="line"/>
      <point x="16.5102348028" y="20.6091327193" type="line"/>
      <point x="97.6813492246" y="46.4563567618"/>
      <point x="115.69469249" y="64.0503449344"/>
      <point x="127.890294395" y="127.050344934" type="curve" smooth="yes"/>
      <point x="205.245255049" y="526.650344934" type="line" smooth="yes"/>
      <point x="217.440856954" y="589.650344934"/>
      <point x="205.579977335" y="598.448784488"/>
      <point x="125.225314642" y="582.209132719" type="curve"/>
      <point x="128.535549444" y="599.309132719" type="line"/>
      <point x="712.635549444" y="754.588255549" type="line"/>
      <point x="691.021676981" y="626.765538729" type="line"/>
      <point x="663.521676981" y="619.454845564" type="line"/>
      <point x="660.501736573" y="695.483574211"/>
      <point x="638.915079839" y="702.550164226"/>
      <point x="514.615079839" y="669.505831119" type="curve" smooth="yes"/>
      <point x="366.115079839" y="630.028088027" type="line" smooth="yes"/>
      <point x="336.415079839" y="622.132539408"/>
      <point x="328.769742533" y="614.977973049"/>
      <point x="323.891501771" y="589.777973049" type="curve" smooth="yes"/>
      <point x="285.214021443" y="389.977973049" type="line"/>
      <point x="454.614021443" y="435.011842946" type="line" smooth="yes"/>
      <point x="506.314021443" y="448.755946097"/>
      <point x="538.507804518" y="464.143922442"/>
      <point x="555.769593552" y="483.245482888" type="curve" smooth="yes"/>
      <point x="570.308713933" y="499.062187881"/>
      <point x="577.322057199" y="513.731898787"/>
      <point x="592.165195457" y="552.678892873" type="curve"/>
      <point x="617.465195457" y="559.404730585" type="line"/>
      <point x="577.045486286" y="350.604730585" type="line"/>
      <point x="551.745486286" y="343.878892873" type="line"/>
      <point x="551.905985688" y="414.777332428"/>
      <point x="537.670883185" y="422.090916528"/>
      <point x="447.470883185" y="398.111842946" type="curve" smooth="yes"/>
      <point x="278.070883185" y="353.077973049" type="line"/>
      <point x="235.037830749" y="130.777973049" type="line" smooth="yes"/>
      <point x="232.076041714" y="115.477973049"/>
      <point x="232.359589987" y="106.162828502"/>
      <point x="237.336921333" y="104.924967135" type="curve"/>
      <point x="243.817361143" y="100.671961221"/>
      <point x="289.146246721" y="108.453925739"/>
      <point x="343.046246721" y="122.782884343" type="curve" smooth="yes"/>
      <point x="372.746246721" y="130.678432961" type="line" smooth="yes"/>
      <point x="530.046246721" y="172.495597866"/>
      <point x="581.527595946" y="206.66999011"/>
      <point x="655.343667456" y="318.491376441" type="curve"/>
    </contour>
  </outline>
</glyph>
<glyph name="F" format="1">
  <advance width="556"/>
  <unicode hex="0046"/>
  <outline>
    <contour>
      <point x="506.654513714" y="443.284755606" type="line"/>
      <point x="481.354513714" y="430.491452039" type="line"/>
      <point x="454.042460081" y="485.82912889"/>
      <point x="432.729116815" y="487.856994775"/>
      <point x="343.629116815" y="442.802316995" type="curve" smooth="yes"/>
      <point x="184.129116815" y="362.148881463" type="line"/>
      <point x="222.109705605" y="195.251192864" type="line" smooth="yes"/>
      <point x="234.653753279" y="140.129020483"/>
      <point x="252.49287366" y="137.198048556"/>
      <point x="337.889765197" y="176.965461066" type="curve"/>
      <point x="341.2" y="162.419332243" type="line"/>
      <point x="33.2" y="6.6747670785" type="line"/>
      <point x="29.8897651972" y="21.2208959013" type="line"/>
      <point x="112.618650775" y="67.3223493694"/>
      <point x="122.453753279" y="83.3935003157"/>
      <point x="107.993253877" y="146.9371157" type="curve" smooth="yes"/>
      <point x="32.5547449506" y="478.435735714" type="line" smooth="yes"/>
      <point x="20.3591430456" y="532.026736641"/>
      <point x="3.6200226646" y="535.513939157"/>
      <point x="-78.8253146415" y="498.946389872" type="curve"/>
      <point x="-82.1355494443" y="513.492518695" type="line"/>
      <point x="501.964450556" y="808.850961918" type="line"/>
      <point x="530.178323019" y="701.040894653" type="line"/>
      <point x="502.678323019" y="687.135129906" type="line"/>
      <point x="468.298263427" y="746.581925355"/>
      <point x="441.484920161" y="745.82863829"/>
      <point x="317.184920161" y="682.974581634" type="curve" smooth="yes"/>
      <point x="167.584920161" y="607.327221411" type="line" smooth="yes"/>
      <point x="137.884920161" y="592.308995485"/>
      <point x="133.430257467" y="584.93432817"/>
      <point x="138.308498229" y="563.4979278" type="curve" smooth="yes"/>
      <point x="176.985978557" y="393.537896291" type="line"/>
      <point x="336.485978557" y="474.191331823" type="line" smooth="yes"/>
      <point x="424.485978557" y="518.689779013"/>
      <point x="441.672635291" y="540.185715543"/>
      <point x="440.934804543" y="608.107340823" type="curve"/>
      <point x="466.234804543" y="620.90064439" type="line"/>
    </contour>
  </outline>
</glyph>
<glyph name="G" format="1">
  <advance width="722"/>
  <unicode hex="0047"/>
  <outline>
    <contour>
      <point x="841.574901062" y="525.931258166" type="line"/>
      <point x="838.438889144" y="509.731258166" type="line"/>
      <point x="773.767774722" y="488.270450023"/>
      <point x="758.302877226" y="473.061317304"/>
      <point x="748.023727048" y="419.961317304" type="curve" smooth="yes"/>
      <point x="712.656481524" y="237.261317304" type="line"/>
      <point x="662.558680571" y="194.064208239"/>
      <point x="518.960879619" y="126.010742413"/>
      <point x="424.360879619" y="100.861957925" type="curve" smooth="yes"/>
      <point x="303.360879619" y="68.6949079975"/>
      <point x="204.381349225" y="74.821846243"/>
      <point x="142.702728245" y="117.32918856" type="curve" smooth="yes"/>
      <point x="91.3818784223" y="154.05323587"/>
      <point x="74.748594749" y="213.657687252"/>
      <point x="91.822437416" y="301.857687252" type="curve" smooth="yes"/>
      <point x="127.363905825" y="485.457687252"/>
      <point x="310.274669825" y="659.574852157"/>
      <point x="530.274669825" y="718.060397479" type="curve" smooth="yes"/>
      <point x="579.774669825" y="731.219645176"/>
      <point x="628.98088675" y="737.4713206"/>
      <point x="675.867543485" y="737.130568298" type="curve" smooth="yes"/>
      <point x="694.447983295" y="736.094267376"/>
      <point x="711.525314642" y="738.073111002"/>
      <point x="722.525314642" y="740.997388268" type="curve" smooth="yes"/>
      <point x="745.625314642" y="747.138370527"/>
      <point x="767.864435023" y="765.002069606"/>
      <point x="777.774669825" y="783.856635966" type="curve"/>
      <point x="801.974669825" y="790.290045951" type="line"/>
      <point x="774.013641226" y="602.729467764" type="line"/>
      <point x="748.713641226" y="596.003630052" type="line"/>
      <point x="731.841237172" y="643.592936887"/>
      <point x="718.945255049" y="663.214093261"/>
      <point x="690.823495811" y="679.641261463" type="curve" smooth="yes"/>
      <point x="654.195519648" y="700.636580125"/>
      <point x="603.605754451" y="703.407621521"/>
      <point x="542.005754451" y="687.031668831" type="curve" smooth="yes"/>
      <point x="467.205754451" y="667.146583422"/>
      <point x="394.301736573" y="624.716064372"/>
      <point x="337.36481524" y="567.749244401" type="curve" smooth="yes"/>
      <point x="280.427893906" y="510.78242443"/>
      <point x="233.77361143" y="420.694448085"/>
      <point x="217.3966603" y="336.094448085" type="curve" smooth="yes"/>
      <point x="184.99120381" y="168.694448085"/>
      <point x="275.129794993" y="95.337220746"/>
      <point x="454.429794993" y="143.002940183" type="curve" smooth="yes"/>
      <point x="533.629794993" y="164.057736499"/>
      <point x="605.433812871" y="206.195827822"/>
      <point x="611.00894517" y="234.995827822" type="curve" smooth="yes"/>
      <point x="639.233052436" y="380.795827822" type="line" smooth="yes"/>
      <point x="646.724636464" y="419.495827822"/>
      <point x="644.131762804" y="438.441261463"/>
      <point x="629.199768763" y="442.154845564" type="curve" smooth="yes"/>
      <point x="617.393551838" y="445.845712844"/>
      <point x="604.716220491" y="445.036580125"/>
      <point x="557.938889144" y="435.162187881" type="curve"/>
      <point x="561.074901062" y="451.362187881" type="line"/>
    </contour>
  </outline>
</glyph>
<glyph name="H" format="1">
  <advance width="722"/>
  <unicode hex="0048"/>
  <outline>
    <contour>
      <point x="187.353984516" y="391.097469462" type="line"/>
      <point x="520.653984516" y="559.635338194" type="line"/>
      <point x="486.854744951" y="708.158969333" type="line" smooth="yes"/>
      <point x="474.310697277" y="763.281141714"/>
      <point x="460.294245549" y="765.584048228"/>
      <point x="374.374685358" y="728.1133929" type="curve"/>
      <point x="371.064450556" y="742.659521723" type="line"/>
      <point x="676.864450556" y="897.291625708" type="line"/>
      <point x="680.174685358" y="882.745496886" type="line"/>
      <point x="596.694245549" y="834.556641373"/>
      <point x="586.510697277" y="820.016661881"/>
      <point x="599.054744951" y="764.8944895" type="curve" smooth="yes"/>
      <point x="676.409705605" y="424.974426483" type="line" smooth="yes"/>
      <point x="688.779530394" y="370.617839829"/>
      <point x="705.344427891" y="367.896223039"/>
      <point x="788.889765197" y="405.020002915" type="curve"/>
      <point x="792.2" y="390.473874092" type="line"/>
      <point x="486.4" y="235.841770107" type="line"/>
      <point x="483.089765197" y="250.38789893" type="line"/>
      <point x="568.018650775" y="297.601813578"/>
      <point x="576.927976163" y="312.351148207"/>
      <point x="562.293253877" y="376.660349318" type="curve" smooth="yes"/>
      <point x="528.319791428" y="525.949566184" type="line"/>
      <point x="195.019791428" y="357.411697452" type="line"/>
      <point x="230.909705605" y="199.701037583" type="line" smooth="yes"/>
      <point x="243.279530394" y="145.344450929"/>
      <point x="259.844427891" y="142.62283414"/>
      <point x="343.389765197" y="179.746614016" type="curve"/>
      <point x="346.7" y="165.200485193" type="line"/>
      <point x="40.9" y="10.5683812076" type="line"/>
      <point x="37.5897651972" y="25.1145100304" type="line"/>
      <point x="122.518650775" y="72.3284246783"/>
      <point x="131.427976163" y="87.0777593072"/>
      <point x="116.793253877" y="151.386960419" type="curve" smooth="yes"/>
      <point x="41.3547449506" y="482.885580433" type="line" smooth="yes"/>
      <point x="28.8106972769" y="538.007752815"/>
      <point x="14.794245549" y="540.310659329"/>
      <point x="-71.1253146415" y="502.840004001" type="curve"/>
      <point x="-74.4355494443" y="517.386132824" type="line"/>
      <point x="231.364450556" y="672.018236809" type="line"/>
      <point x="234.674685358" y="657.472107986" type="line"/>
      <point x="151.194245549" y="609.283252473"/>
      <point x="141.010697277" y="594.743272982"/>
      <point x="153.554744951" y="539.621100601" type="curve" smooth="yes"/>
    </contour>
  </outline>
</glyph>
<glyph name="I" format="1">
  <advance width="333"/>
  <unicode hex="0049"/>
  <outline>
    <contour>
      <point x="145.490294395" y="131.72918856" type="curve" smooth="yes"/>
      <point x="222.845255049" y="531.32918856" type="line" smooth="yes"/>
      <point x="235.737748492" y="597.92918856"/>
      <point x="224.45420022" y="604.320055841"/>
      <point x="131.825314642" y="583.963699079" type="curve"/>
      <point x="135.135549444" y="601.063699079" type="line"/>
      <point x="461.835549444" y="687.914733882" type="line"/>
      <point x="458.525314642" y="670.814733882" type="line"/>
      <point x="365.428423104" y="642.650804847"/>
      <point x="347.763525607" y="626.856816674"/>
      <point x="335.045255049" y="561.156816674" type="curve" smooth="yes"/>
      <point x="257.690294395" y="161.556816674" type="line" smooth="yes"/>
      <point x="244.972023837" y="95.8568166743"/>
      <point x="260.132903456" y="87.9356603"/>
      <point x="349.810234803" y="109.214733882" type="curve"/>
      <point x="346.5" y="92.114733882" type="line"/>
      <point x="19.8" y="5.26369907897" type="line"/>
      <point x="23.1102348028" y="22.363699079" type="line"/>
      <point x="116.032903456" y="49.6276281142"/>
      <point x="132.423578068" y="64.2291885601"/>
    </contour>
  </outline>
</glyph>
<glyph name="J" format="1">
  <advance width="389"/>
  <unicode hex="004A"/>
  <outline>
    <contour>
      <point x="229.454744951" y="578.001011302" type="curve" smooth="yes"/>
      <point x="293.917212163" y="294.734292121" type="line" smooth="yes"/>
      <point x="315.695072707" y="199.036076181"/>
      <point x="261.139120381" y="109.983837818"/>
      <point x="142.339120381" y="49.9109341111" type="curve" smooth="yes"/>
      <point x="78.539120381" y="17.6495598984"/>
      <point x="28.2124338503" y="17.811677539"/>
      <point x="20.8950727073" y="49.9662780947" type="curve" smooth="yes"/>
      <point x="16.1910548297" y="70.6370927377"/>
      <point x="36.3839284894" y="100.482637448"/>
      <point x="66.0839284894" y="115.500863374" type="curve" smooth="yes"/>
      <point x="94.6839284894" y="129.962858711"/>
      <point x="115.071494639" y="126.613176509"/>
      <point x="132.169295592" y="105.379981945" type="curve" smooth="yes"/>
      <point x="144.224867701" y="90.1339528858"/>
      <point x="152.218650775" y="87.3466506049"/>
      <point x="167.618650775" y="95.1338788631" type="curve" smooth="yes"/>
      <point x="196.218650775" y="109.5958742"/>
      <point x="205.759970204" y="132.347941556"/>
      <point x="197.919940408" y="166.799299294" type="curve" smooth="yes"/>
      <point x="117.254744951" y="521.265491135" type="line" smooth="yes"/>
      <point x="104.536474393" y="577.153249244"/>
      <point x="90.5200226646" y="579.456155758"/>
      <point x="-0.725314641545" y="538.438761753" type="curve"/>
      <point x="-4.03554944433" y="552.984890576" type="line"/>
      <point x="311.664450556" y="712.62306987" type="line"/>
      <point x="314.974685358" y="698.076941047" type="line"/>
      <point x="226.920022665" y="648.428748902"/>
      <point x="216.736474393" y="633.888769411"/>
    </contour>
  </outline>
</glyph>
<glyph name="K" format="1">
  <advance width="722"/>
  <unicode hex="004B"/>
  <outline>
    <contour>
      <point x="566.325314642" y="699.47265109" type="curve"/>
      <point x="569.635549444" y="716.57265109" type="line"/>
      <point x="857.835549444" y="793.188715461" type="line"/>
      <point x="854.525314642" y="776.088715461" type="line"/>
      <point x="778.85420022" y="751.703630052"/>
      <point x="759.860417145" y="739.824786426"/>
      <point x="673.735929662" y="661.439701017" type="curve"/>
      <point x="431.982027403" y="436.678432961" type="line"/>
      <point x="644.726306313" y="279.814093261" type="line" smooth="yes"/>
      <point x="727.926686531" y="219.125016383"/>
      <point x="741.584457687" y="214.219004555"/>
      <point x="798.610234803" y="228.525246339" type="curve"/>
      <point x="795.3" y="211.425246339" type="line"/>
      <point x="459.8" y="122.234789723" type="line"/>
      <point x="463.110234803" y="139.334789723" type="line"/>
      <point x="476.484457687" y="143.743922442"/>
      <point x="488.584457687" y="146.960627435"/>
      <point x="494.084457687" y="148.422766068" type="curve" smooth="yes"/>
      <point x="525.058680571" y="157.510742413"/>
      <point x="541.678240762" y="167.904730585"/>
      <point x="544.117361143" y="180.504730585" type="curve" smooth="yes"/>
      <point x="548.298710368" y="202.104730585"/>
      <point x="501.268535157" y="250.213633349"/>
      <point x="430.735251484" y="295.489126126" type="curve" smooth="yes"/>
      <point x="332.428654341" y="358.991787106" type="line"/>
      <point x="300.16997377" y="332.488666214" type="line"/>
      <point x="267.590294395" y="164.188666214" type="line" smooth="yes"/>
      <point x="254.872023837" y="98.4886662138"/>
      <point x="265.981349225" y="91.1977989331"/>
      <point x="350.910234803" y="109.507161609" type="curve"/>
      <point x="347.6" y="92.4071616086" type="line"/>
      <point x="37.4" y="9.94254270473" type="line"/>
      <point x="40.7102348028" y="27.0425427047" type="line"/>
      <point x="128.481349225" y="54.6443331069"/>
      <point x="142.846246721" y="69.5610380996"/>
      <point x="157.306746123" y="144.2610381" type="curve" smooth="yes"/>
      <point x="232.745255049" y="533.9610381" type="line" smooth="yes"/>
      <point x="245.115079839" y="597.8610381"/>
      <point x="234.179977335" y="606.05190538"/>
      <point x="149.425314642" y="588.642542705" type="curve"/>
      <point x="152.735549444" y="605.742542705" type="line"/>
      <point x="465.135549444" y="688.792017062" type="line"/>
      <point x="461.825314642" y="671.692017062" type="line"/>
      <point x="371.679977335" y="642.605371206"/>
      <point x="357.663525607" y="629.488666214"/>
      <point x="344.945255049" y="563.788666214" type="curve" smooth="yes"/>
      <point x="309.229563756" y="379.288666214" type="line"/>
      <point x="531.979448138" y="575.948373824" type="line" smooth="yes"/>
      <point x="601.36481524" y="637.931898787"/>
      <point x="631.891501771" y="671.657736499"/>
      <point x="635.724405226" y="691.457736499" type="curve" smooth="yes"/>
      <point x="639.208862914" y="709.457736499"/>
      <point x="627.402645988" y="713.14860378"/>
      <point x="594.751091757" y="706.175771982" type="curve" smooth="yes"/>
      <point x="590.351091757" y="705.006061075"/>
      <point x="579.351091757" y="702.081783809"/>
    </contour>
  </outline>
</glyph>
<glyph name="L" format="1">
  <advance width="611"/>
  <unicode hex="004C"/>
  <outline>
    <contour>
      <point x="619.985218122" y="451.932044586" type="curve"/>
      <point x="647.485218122" y="465.837809333" type="line"/>
      <point x="625.0" y="305.926824431" type="line"/>
      <point x="33.2" y="6.6747670785" type="line"/>
      <point x="29.8897651972" y="21.2208959013" type="line"/>
      <point x="109.318650775" y="65.6536575998"/>
      <point x="122.10530751" y="84.9246717708"/>
      <point x="109.909705605" y="138.515672697" type="curve" smooth="yes"/>
      <point x="32.5547449506" y="478.435735714" type="line" smooth="yes"/>
      <point x="20.3591430456" y="532.026736641"/>
      <point x="3.6200226646" y="535.513939157"/>
      <point x="-78.8253146415" y="498.946389872" type="curve"/>
      <point x="-82.1355494443" y="513.492518695" type="line"/>
      <point x="228.064450556" y="670.349545039" type="line"/>
      <point x="231.374685358" y="655.803416217" type="line"/>
      <point x="145.34579978" y="608.033270979"/>
      <point x="132.384920161" y="589.527842535"/>
      <point x="144.754744951" y="535.171255882" type="curve" smooth="yes"/>
      <point x="227.162169251" y="173.049206766" type="line" smooth="yes"/>
      <point x="233.259970204" y="146.253706303"/>
      <point x="248.60530751" y="148.891189606"/>
      <point x="328.90530751" y="189.496022667" type="curve" smooth="yes"/>
      <point x="402.60530751" y="226.763472189" type="line" smooth="yes"/>
      <point x="493.90530751" y="272.930611148"/>
      <point x="551.269295592" y="317.303836687"/>
      <point x="582.974603102" y="366.629750706" type="curve" smooth="yes"/>
      <point x="596.512814068" y="387.988166922"/>
      <point x="607.905687727" y="413.383866913"/>
    </contour>
  </outline>
</glyph>
<glyph name="M" format="1">
  <advance width="889"/>
  <unicode hex="004D"/>
  <outline>
    <contour>
      <point x="841.229712737" y="712.796287735" type="line"/>
      <point x="459.8" y="122.234789723" type="line"/>
      <point x="444.4" y="118.14080155" type="line"/>
      <point x="264.122586396" y="539.741442171" type="line"/>
      <point x="193.910764" y="177.041442171" type="line" smooth="yes"/>
      <point x="176.31425268" y="86.1414421713"/>
      <point x="191.00712634" y="70.4127135236"/>
      <point x="275.010234803" y="89.3296484726" type="curve"/>
      <point x="271.7" y="72.2296484726" type="line"/>
      <point x="13.2" y="3.50913271932" type="line"/>
      <point x="16.5102348028" y="20.6091327193" type="line"/>
      <point x="108.855572109" y="50.2806340279"/>
      <point x="127.565806912" y="71.4746222004"/>
      <point x="145.510764" y="164.1746222" type="curve" smooth="yes"/>
      <point x="216.245255049" y="529.5746222" type="line" smooth="yes"/>
      <point x="228.963525607" y="595.2746222"/>
      <point x="216.75420022" y="602.273061755"/>
      <point x="127.425314642" y="582.793988173" type="curve"/>
      <point x="130.735549444" y="599.893988173" type="line"/>
      <point x="348.535549444" y="657.794678041" type="line"/>
      <point x="514.652992844" y="270.845482888" type="line"/>
      <point x="845.735549444" y="789.972010469" type="line"/>
      <point x="1064.63554944" y="848.165128064" type="line"/>
      <point x="1061.32531464" y="831.065128064" type="line"/>
      <point x="978.879977335" y="804.025476295"/>
      <point x="962.315079839" y="788.523915849"/>
      <point x="949.945255049" y="724.623915849" type="curve" smooth="yes"/>
      <point x="872.590294395" y="325.023915849" type="line" smooth="yes"/>
      <point x="860.220469606" y="261.123915849"/>
      <point x="873.181349225" y="252.617904022"/>
      <point x="952.610234803" y="269.465128064" type="curve"/>
      <point x="949.3" y="252.365128064" type="line"/>
      <point x="641.3" y="170.485364613" type="line"/>
      <point x="644.610234803" y="187.585364613" type="line"/>
      <point x="732.381349225" y="215.187155016"/>
      <point x="747.846246721" y="230.396287735"/>
      <point x="762.306746123" y="305.096287735" type="curve" smooth="yes"/>
    </contour>
  </outline>
</glyph>
<glyph name="N" format="1">
  <advance width="722"/>
  <unicode hex="004E"/>
  <outline>
    <contour>
      <point x="695.116451728" y="331.991678001" type="line"/>
      <point x="676.416451728" y="322.535757973" type="line"/>
      <point x="94.3938653316" y="497.753987382" type="line"/>
      <point x="162.689236" y="197.644382196" type="line" smooth="yes"/>
      <point x="180.28574732" y="120.320223717"/>
      <point x="202.99287366" y="112.167672012"/>
      <point x="288.389765197" y="151.935084522" type="curve"/>
      <point x="291.7" y="137.388955699" type="line"/>
      <point x="33.2" y="6.6747670785" type="line"/>
      <point x="29.8897651972" y="21.2208959013" type="line"/>
      <point x="120.144427891" y="71.981549226"/>
      <point x="132.234193088" y="94.3149063071"/>
      <point x="114.289236" y="173.170236241" type="curve" smooth="yes"/>
      <point x="37.4569439981" y="510.793542076" type="line"/>
      <point x="-14.7315315667" y="524.526847675"/>
      <point x="-31.5253146415" y="522.864305236"/>
      <point x="-78.8253146415" y="498.946389872" type="curve"/>
      <point x="-82.1355494443" y="513.492518695" type="line"/>
      <point x="105.964450556" y="608.607949563" type="line"/>
      <point x="613.788326584" y="452.213234547" type="line"/>
      <point x="555.075214556" y="710.21562472" type="line" smooth="yes"/>
      <point x="544.273395726" y="757.681939826"/>
      <point x="528.101371889" y="780.236950708"/>
      <point x="503.662251508" y="779.830539096" type="curve"/>
      <point x="485.594245549" y="778.377351795"/>
      <point x="469.497354012" y="773.652466447"/>
      <point x="427.174685358" y="754.812461214" type="curve"/>
      <point x="423.864450556" y="769.358590037" type="line"/>
      <point x="682.364450556" y="900.072778658" type="line"/>
      <point x="685.674685358" y="885.526649835" type="line"/>
      <point x="644.571576896" y="861.32754451"/>
      <point x="629.868468433" y="850.477973341"/>
      <point x="616.210697277" y="835.034887808" type="curve" smooth="yes"/>
      <point x="597.575594774" y="814.513892142"/>
      <point x="593.021841495" y="780.624914326"/>
      <point x="603.475214556" y="734.689770675" type="curve" smooth="yes"/>
    </contour>
  </outline>
</glyph>
<glyph name="O" format="1">
  <advance width="722"/>
  <unicode hex="004F"/>
  <outline>
    <contour>
      <point x="514.874669825" y="713.966409306" type="curve" smooth="yes"/>
      <point x="620.474669825" y="742.039471061"/>
      <point x="706.602645988" y="734.203400096"/>
      <point x="763.881266968" y="690.526346872" type="curve" smooth="yes"/>
      <point x="813.927893906" y="652.609871836"/>
      <point x="831.018948736" y="584.590275907"/>
      <point x="813.770883185" y="495.490275907" type="curve" smooth="yes"/>
      <point x="778.752083429" y="314.590275907"/>
      <point x="604.760879619" y="148.820105089"/>
      <point x="388.060879619" y="91.2118429464" type="curve" smooth="yes"/>
      <point x="291.260879619" y="65.4782030048"/>
      <point x="200.155572109" y="74.5521353365"/>
      <point x="147.331613823" y="114.291327193" type="curve" smooth="yes"/>
      <point x="98.0365411161" y="150.700229956"/>
      <point x="78.6908235926" y="223.242542705"/>
      <point x="95.0677747222" y="307.842542705" type="curve" smooth="yes"/>
      <point x="130.086574478" y="488.742542705"/>
      <point x="304.774669825" y="658.112713524"/>
    </contour>
    <contour>
      <point x="508.602645988" y="681.566409306" type="curve" smooth="yes"/>
      <point x="448.102645988" y="665.482884343"/>
      <point x="390.369742533" y="631.353925739"/>
      <point x="339.978158505" y="581.249244401" type="curve" smooth="yes"/>
      <point x="285.58968294" y="526.667279883"/>
      <point x="237.890063158" y="431.179303538"/>
      <point x="220.119328953" y="339.379303538" type="curve" smooth="yes"/>
      <point x="200.78058879" y="239.479303538"/>
      <point x="219.48407747" y="158.229418516"/>
      <point x="268.669824789" y="132.0356603" type="curve" smooth="yes"/>
      <point x="301.768915374" y="114.370630731"/>
      <point x="348.132903456" y="111.329878429"/>
      <point x="398.732903456" y="124.781553853" type="curve" smooth="yes"/>
      <point x="457.032903456" y="140.280223363"/>
      <point x="509.668915374" y="169.639471061"/>
      <point x="554.266716327" y="211.374441492" type="curve" smooth="yes"/>
      <point x="583.573842667" y="238.800279204"/>
      <point x="606.629414776" y="266.271550556"/>
      <point x="620.884986885" y="291.403400096" type="curve" smooth="yes"/>
      <point x="651.944576871" y="344.051954628"/>
      <point x="678.265955892" y="409.953515074"/>
      <point x="688.545106069" y="463.053515074" type="curve" smooth="yes"/>
      <point x="709.277629308" y="570.153515074"/>
      <point x="691.554580437" y="645.688255549"/>
      <point x="640.691501771" y="673.997158312" type="curve" smooth="yes"/>
      <point x="606.66663407" y="692.269760154"/>
      <point x="559.202645988" y="695.01808473"/>
    </contour>
  </outline>
</glyph>
<glyph name="P" format="1">
  <advance width="556"/>
  <unicode hex="0050"/>
  <outline>
    <contour>
      <point x="191.501140652" y="335.144025862" type="curve"/>
      <point x="223.209705605" y="195.807423454" type="line" smooth="yes"/>
      <point x="235.927976163" y="139.919665345"/>
      <point x="254.867096544" y="137.544924008"/>
      <point x="342.289765197" y="179.190383426" type="curve"/>
      <point x="345.6" y="164.644254603" type="line"/>
      <point x="37.6" y="8.899689438" type="line"/>
      <point x="34.2897651972" y="23.4458182608" type="line"/>
      <point x="116.670205007" y="71.0784431839"/>
      <point x="123.727976163" y="83.1841451781"/>
      <point x="109.093253877" y="147.49334629" type="curve" smooth="yes"/>
      <point x="33.6547449506" y="478.991966304" type="line" smooth="yes"/>
      <point x="21.1106972769" y="534.114138686"/>
      <point x="8.36846843331" y="536.207690062"/>
      <point x="-74.4253146415" y="501.171312231" type="curve"/>
      <point x="-77.7355494443" y="515.717441054" type="line"/>
      <point x="212.664450556" y="662.562316781" type="line" smooth="yes"/>
      <point x="316.064450556" y="714.847992229"/>
      <point x="416.642691318" y="741.803653178"/>
      <point x="468.308498229" y="730.367104762" type="curve" smooth="yes"/>
      <point x="503.060961876" y="723.183344591"/>
      <point x="525.081431481" y="701.878315204"/>
      <point x="532.398792624" y="669.723714648" type="curve" smooth="yes"/>
      <point x="543.897502992" y="619.195056632"/>
      <point x="514.925098938" y="552.470026018"/>
      <point x="454.500231237" y="494.597447345" type="curve" smooth="yes"/>
      <point x="411.381580462" y="452.30547452"/>
      <point x="353.723809305" y="414.613165391"/>
      <point x="267.923809305" y="371.227179381" type="curve" smooth="yes"/>
      <point x="239.323809305" y="356.765184044"/>
      <point x="220.449586421" y="348.074849744"/>
    </contour>
    <contour>
      <point x="139.234275345" y="564.819744117" type="curve" smooth="yes"/>
      <point x="184.532225278" y="365.767454963" type="line"/>
      <point x="210.180671047" y="377.029587075"/>
      <point x="225.754893931" y="384.051229606"/>
      <point x="247.754893931" y="395.175841403" type="curve" smooth="yes"/>
      <point x="374.254893931" y="459.142359239"/>
      <point x="430.443749713" y="530.239250417"/>
      <point x="413.54412993" y="604.501065986" type="curve" smooth="yes"/>
      <point x="395.599172842" y="683.356395921"/>
      <point x="319.210697277" y="684.852628542"/>
      <point x="170.710697277" y="609.761498909" type="curve" smooth="yes"/>
      <point x="141.010697277" y="594.743272982"/>
      <point x="134.530257467" y="585.49055876"/>
    </contour>
  </outline>
</glyph>
<glyph name="Q" format="1">
  <advance width="722"/>
  <unicode hex="0051"/>
  <outline>
    <contour>
      <point x="743.398561387" y="61.8918363533" type="curve"/>
      <point x="740.262549469" y="45.6918363533" type="line"/>
      <point x="733.662549469" y="43.9372699937" type="line"/>
      <point x="721.388326584" y="39.820565001"/>
      <point x="711.488326584" y="37.1887154615"/>
      <point x="694.988326584" y="32.8022995623" type="curve" smooth="yes"/>
      <point x="520.088326584" y="-13.6937089686"/>
      <point x="394.479910612" y="-10.3774638883"/>
      <point x="333.443518476" y="40.8374507022" type="curve" smooth="yes"/>
      <point x="291.325777116" y="76.5933475515" type="line"/>
      <point x="217.40712634" y="77.4309789623"/>
      <point x="185.691584027" y="86.0732917108"/>
      <point x="150.10894517" y="112.468610373" type="curve" smooth="yes"/>
      <point x="96.3592097692" y="152.815374503"/>
      <point x="77.6454862865" y="217.842542705"/>
      <point x="94.7193289534" y="306.042542705" type="curve" smooth="yes"/>
      <point x="130.086574478" y="488.742542705"/>
      <point x="304.774669825" y="658.112713524"/>
      <point x="514.874669825" y="713.966409306" type="curve" smooth="yes"/>
      <point x="724.974669825" y="769.820105089"/>
      <point x="849.486574478" y="679.990275907"/>
      <point x="814.467774722" y="499.090275907" type="curve" smooth="yes"/>
      <point x="795.129034559" y="399.190275907"/>
      <point x="737.474752082" y="306.178022296"/>
      <point x="644.576041714" y="225.138370527" type="curve" smooth="yes"/>
      <point x="587.00712634" y="175.686695103"/>
      <point x="544.445337306" y="149.859296945"/>
      <point x="467.38043981" y="118.274211536" type="curve"/>
      <point x="538.187036952" y="47.4608573911"/>
      <point x="618.52123004" y="31.2550755198"/>
    </contour>
    <contour>
      <point x="511.902645988" y="682.443692486" type="curve" smooth="yes"/>
      <point x="448.102645988" y="665.482884343"/>
      <point x="392.743965417" y="632.838781192"/>
      <point x="339.978158505" y="581.249244401" type="curve"/>
      <point x="286.863905825" y="527.85970761"/>
      <point x="237.890063158" y="431.179303538"/>
      <point x="221.16466626" y="344.779303538" type="curve" smooth="yes"/>
      <point x="200.78058879" y="239.479303538"/>
      <point x="218.558300354" y="158.83699079"/>
      <point x="268.669824789" y="132.0356603" type="curve" smooth="yes"/>
      <point x="302.69469249" y="113.763058458"/>
      <point x="348.132903456" y="111.329878429"/>
      <point x="400.932903456" y="125.366409306" type="curve" smooth="yes"/>
      <point x="461.432903456" y="141.44993427"/>
      <point x="522.640029796" y="177.356176053"/>
      <point x="570.483168055" y="225.076001938" type="curve"/>
      <point x="622.497420735" y="278.173111002"/>
      <point x="672.16815494" y="378.453515074"/>
      <point x="689.416220491" y="467.553515074" type="curve" smooth="yes"/>
      <point x="709.103406423" y="569.253515074"/>
      <point x="690.628803321" y="646.295827822"/>
      <point x="639.591501771" y="673.704730585" type="curve" smooth="yes"/>
      <point x="606.492411186" y="691.369760154"/>
      <point x="559.202645988" y="695.01808473"/>
    </contour>
  </outline>
</glyph>
<glyph name="R" format="1">
  <advance width="667"/>
  <unicode hex="0052"/>
  <outline>
    <contour>
      <point x="741.589765197" y="381.10208755" type="curve"/>
      <point x="744.9" y="366.555958728" type="line"/>
      <point x="567.8" y="277.002833758" type="line"/>
      <point x="252.339351618" y="380.420357443" type="line"/>
      <point x="191.087797387" y="347.740272955" type="line"/>
      <point x="225.409705605" y="196.919884634" type="line" smooth="yes"/>
      <point x="237.953753279" y="141.797712253"/>
      <point x="254.518650775" y="139.076095463"/>
      <point x="340.089765197" y="178.077922246" type="curve"/>
      <point x="343.4" y="163.531793423" type="line"/>
      <point x="38.7" y="9.45592002787" type="line"/>
      <point x="35.3897651972" y="24.0020488507" type="line"/>
      <point x="116.844427891" y="70.3128574564"/>
      <point x="125.753753279" y="85.0621920854"/>
      <point x="111.293253877" y="148.605807469" type="curve" smooth="yes"/>
      <point x="35.8547449506" y="480.104427484" type="line" smooth="yes"/>
      <point x="23.4849201612" y="534.461014138"/>
      <point x="10.5684684333" y="537.320151242"/>
      <point x="-73.3253146415" y="501.727542821" type="curve"/>
      <point x="-76.6355494443" y="516.273671644" type="line"/>
      <point x="226.964450556" y="669.793314449" type="line" smooth="yes"/>
      <point x="330.364450556" y="722.078989898"/>
      <point x="426.194245549" y="748.340899942"/>
      <point x="475.137383808" y="738.088647529" type="curve" smooth="yes"/>
      <point x="508.789847454" y="730.348656768"/>
      <point x="529.536094175" y="709.252982518"/>
      <point x="537.027678203" y="676.332796235" type="curve" smooth="yes"/>
      <point x="545.216153767" y="640.350267041"/>
      <point x="531.63351491" y="597.627285278"/>
      <point x="500.963309904" y="559.922677487" type="curve" smooth="yes"/>
      <point x="469.367327781" y="520.896253378"/>
      <point x="438.458002393" y="495.022306951"/>
      <point x="367.02289989" y="447.802242972" type="curve"/>
      <point x="637.701289632" y="368.692555425" type="line"/>
      <point x="675.524867701" y="358.793327795"/>
      <point x="699.267096544" y="362.262082318"/>
    </contour>
    <contour>
      <point x="141.782721114" y="564.401033842" type="curve" smooth="yes"/>
      <point x="184.641550666" y="376.066944873" type="line"/>
      <point x="289.893104897" y="430.996252956"/>
      <point x="327.347767591" y="455.057837967"/>
      <point x="373.417972597" y="500.549674016" type="curve"/>
      <point x="409.707737795" y="535.120104075"/>
      <point x="425.490376652" y="578.955547018"/>
      <point x="416.779232434" y="617.234833393" type="curve" smooth="yes"/>
      <point x="400.402281304" y="689.19989178"/>
      <point x="329.110697277" y="689.85870385"/>
      <point x="191.610697277" y="620.329880116" type="curve" smooth="yes"/>
      <point x="147.610697277" y="598.080656521"/>
      <point x="136.904480352" y="585.837434212"/>
    </contour>
  </outline>
</glyph>
<glyph name="S" format="1">
  <advance width="556"/>
  <unicode hex="0053"/>
  <outline>
    <contour>
      <point x="609.474669825" y="739.115193794" type="line"/>
      <point x="596.565195457" y="553.84860378" type="line"/>
      <point x="569.065195457" y="546.537910615" type="line"/>
      <point x="561.744345634" y="594.959066989"/>
      <point x="550.874140628" y="614.265078816"/>
      <point x="522.349272927" y="633.999819291" type="curve" smooth="yes"/>
      <point x="490.121296764" y="656.16484886"/>
      <point x="447.231531567" y="660.982884343"/>
      <point x="397.731531567" y="647.823636645" type="curve" smooth="yes"/>
      <point x="329.531531567" y="629.693117595"/>
      <point x="276.711061961" y="583.211153078"/>
      <point x="267.128803321" y="533.711153078" type="curve" smooth="yes"/>
      <point x="257.720767566" y="485.111153078"/>
      <point x="296.254960655" y="457.793117595"/>
      <point x="401.650033362" y="436.298028889" type="curve"/>
      <point x="534.480208572" y="410.998488802"/>
      <point x="583.655721089" y="368.582013765"/>
      <point x="569.369444572" y="294.782013765" type="curve" smooth="yes"/>
      <point x="551.424487483" y="202.082013765"/>
      <point x="439.760879619" y="104.955946097"/>
      <point x="313.260879619" y="71.326757537" type="curve" smooth="yes"/>
      <point x="269.260879619" y="59.6296484726"/>
      <point x="226.654662694" y="55.1325394082"/>
      <point x="187.468005959" y="57.520285797" type="curve" smooth="yes"/>
      <point x="167.78756615" y="58.2641589914"/>
      <point x="149.784457687" y="56.8928876391"/>
      <point x="137.684457687" y="53.6761826464" type="curve" smooth="yes"/>
      <point x="121.184457687" y="49.2897667472"/>
      <point x="105.545337306" y="33.1806340279"/>
      <point x="101.135102503" y="15.7882063013" type="curve"/>
      <point x="76.9351025034" y="9.35479631589" type="line"/>
      <point x="80.870353987" y="191.381964518" type="line"/>
      <point x="106.170353987" y="198.10780223" type="line"/>
      <point x="139.915162095" y="102.92918856"/>
      <point x="199.632903456" y="71.8521353365"/>
      <point x="297.532903456" y="97.8782030048" type="curve" smooth="yes"/>
      <point x="377.832903456" y="119.225427047"/>
      <point x="440.847156136" y="175.246813378"/>
      <point x="452.520089388" y="235.546813378" type="curve" smooth="yes"/>
      <point x="456.701438613" y="257.146813378"/>
      <point x="454.860119184" y="274.584674745"/>
      <point x="447.225016681" y="283.652825205" type="curve" smooth="yes"/>
      <point x="426.345486286" y="310.54213204"/>
      <point x="376.288624545" y="332.235890256"/>
      <point x="303.709094151" y="345.38109394" type="curve" smooth="yes"/>
      <point x="190.788244328" y="365.72918856"/>
      <point x="152.144725852" y="403.262368589"/>
      <point x="166.0825566" y="475.262368589" type="curve" smooth="yes"/>
      <point x="175.142146587" y="522.062368589"/>
      <point x="202.25950773" y="565.126067668"/>
      <point x="246.160417145" y="603.2610381" type="curve" smooth="yes"/>
      <point x="287.512880791" y="639.011153078"/>
      <point x="338.874669825" y="667.177973049"/>
      <point x="386.174669825" y="679.752365293" type="curve" smooth="yes"/>
      <point x="421.374669825" y="689.110052544"/>
      <point x="460.68088675" y="692.729878429"/>
      <point x="498.941766369" y="690.949704313" type="curve"/>
      <point x="516.247983295" y="688.720975666"/>
      <point x="534.251091757" y="690.092247018"/>
      <point x="545.251091757" y="693.016524284" type="curve" smooth="yes"/>
      <point x="563.951091757" y="697.987795637"/>
      <point x="577.967543485" y="711.104500629"/>
      <point x="586.374669825" y="732.974211536" type="curve"/>
    </contour>
  </outline>
</glyph>
<glyph name="T" format="1">
  <advance width="611"/>
  <unicode hex="0054"/>
  <outline>
    <contour>
      <point x="191.381811699" y="615.945720889" type="line"/>
      <point x="131.981811699" y="585.909269035" type="line" smooth="yes"/>
      <point x="8.78181169867" y="523.611442969"/>
      <point x="-13.2079534986" y="496.272010579"/>
      <point x="-20.6176591036" y="399.473632123" type="curve"/>
      <point x="-47.0176591036" y="386.124097966" type="line"/>
      <point x="-70.0355494443" y="519.611055183" type="line"/>
      <point x="550.364450556" y="833.325107873" type="line"/>
      <point x="586.582340896" y="706.512917734" type="line"/>
      <point x="560.182340896" y="693.163383577" type="line"/>
      <point x="515.717823617" y="764.584510037"/>
      <point x="488.381811699" y="766.127980155"/>
      <point x="362.981811699" y="702.717692909" type="curve" smooth="yes"/>
      <point x="303.581811699" y="672.681241056" type="line"/>
      <point x="392.609705605" y="281.466934295" type="line" smooth="yes"/>
      <point x="405.327976163" y="225.579176186"/>
      <point x="422.99287366" y="223.413789987"/>
      <point x="513.889765197" y="265.962355446" type="curve"/>
      <point x="517.2" y="251.416226623" type="line"/>
      <point x="196.0" y="88.99689438" type="line"/>
      <point x="192.689765197" y="103.543023203" type="line"/>
      <point x="283.118650775" y="153.5380908"/>
      <point x="293.302199048" y="168.078070291"/>
      <point x="278.493253877" y="233.15285713" type="curve" smooth="yes"/>
    </contour>
  </outline>
</glyph>
<glyph name="U" format="1">
  <advance width="722"/>
  <unicode hex="0055"/>
  <outline>
    <contour>
      <point x="761.824785444" y="642.173340958" type="curve" smooth="yes"/>
      <point x="716.352612627" y="407.273340958" type="line" smooth="yes"/>
      <point x="702.937450531" y="337.973340958"/>
      <point x="685.023197851" y="293.941491419"/>
      <point x="651.305836708" y="249.12322598" type="curve" smooth="yes"/>
      <point x="596.558680571" y="176.518544643"/>
      <point x="507.960879619" y="123.086465147"/>
      <point x="388.060879619" y="91.2118429464" type="curve" smooth="yes"/>
      <point x="201.060879619" y="41.4991294228"/>
      <point x="126.247156136" y="91.6124835674"/>
      <point x="156.38771513" y="247.312483567" type="curve" smooth="yes"/>
      <point x="210.745255049" y="528.112483567" type="line" smooth="yes"/>
      <point x="223.463525607" y="593.812483567"/>
      <point x="213.279977335" y="600.495778575"/>
      <point x="127.425314642" y="582.793988173" type="curve"/>
      <point x="130.735549444" y="599.893988173" type="line"/>
      <point x="442.035549444" y="682.651034803" type="line"/>
      <point x="438.725314642" y="665.551034803" type="line"/>
      <point x="349.505754451" y="635.856816674"/>
      <point x="335.489302723" y="622.740111682"/>
      <point x="322.945255049" y="557.940111682" type="curve" smooth="yes"/>
      <point x="267.193932055" y="269.940111682" type="line" smooth="yes"/>
      <point x="256.217890341" y="213.240111682"/>
      <point x="257.471643619" y="181.987105768"/>
      <point x="271.69651132" y="158.450804847" type="curve" smooth="yes"/>
      <point x="293.208035755" y="124.046353465"/>
      <point x="342.926686531" y="116.775312069"/>
      <point x="421.026686531" y="137.537680658" type="curve" smooth="yes"/>
      <point x="503.526686531" y="159.469760154"/>
      <point x="579.327595946" y="206.085134657"/>
      <point x="617.390294395" y="257.180683276" type="curve" smooth="yes"/>
      <point x="640.216980926" y="288.859526901"/>
      <point x="654.537450531" y="325.106520988"/>
      <point x="666.384606667" y="386.306520988" type="curve" smooth="yes"/>
      <point x="713.424785444" y="629.306520988" type="line" smooth="yes"/>
      <point x="730.84707388" y="719.306520988"/>
      <point x="717.079977335" y="734.427677362"/>
      <point x="632.325314642" y="717.018314686" type="curve"/>
      <point x="635.635549444" y="734.118314686" type="line"/>
      <point x="890.835549444" y="801.96154726" type="line"/>
      <point x="887.525314642" y="784.86154726" type="line"/>
      <point x="795.583085798" y="751.882473678"/>
      <point x="779.595519648" y="733.973340958"/>
    </contour>
  </outline>
</glyph>
<glyph name="V" format="1">
  <advance width="722"/>
  <unicode hex="0056"/>
  <outline>
    <contour>
      <point x="671.364450556" y="894.510472759" type="line"/>
      <point x="674.674685358" y="879.964343936" type="line"/>
      <point x="622.397354012" y="850.96851844"/>
      <point x="612.213805739" y="836.428538948"/>
      <point x="589.677413604" y="757.591657009" type="curve"/>
      <point x="443.216451728" y="204.614872919" type="line"/>
      <point x="426.716451728" y="196.271414071" type="line"/>
      <point x="60.4680882159" y="479.745253369" type="line"/>
      <point x="-2.33774849183" y="523.964467753"/>
      <point x="-20.1768688728" y="526.89543968"/>
      <point x="-74.4253146415" y="501.171312231" type="curve"/>
      <point x="-77.7355494443" y="515.717441054" type="line"/>
      <point x="214.864450556" y="663.674777961" type="line"/>
      <point x="218.174685358" y="649.128649138" type="line"/>
      <point x="202.948908243" y="640.575835152"/>
      <point x="191.023131127" y="633.691712936"/>
      <point x="186.623131127" y="631.466790577" type="curve" smooth="yes"/>
      <point x="151.771576896" y="612.136240246"/>
      <point x="138.113805739" y="596.693154712"/>
      <point x="141.424040542" y="582.147025889" type="curve" smooth="yes"/>
      <point x="144.037383808" y="570.663239977"/>
      <point x="156.844510148" y="557.504612963"/>
      <point x="205.862780706" y="519.97246432" type="curve" smooth="yes"/>
      <point x="430.850115619" y="345.19530749" type="line"/>
      <point x="528.61031706" y="707.931166201" type="line" smooth="yes"/>
      <point x="536.583630529" y="737.573505105"/>
      <point x="539.579612651" y="762.137933877"/>
      <point x="536.792046501" y="774.387305517" type="curve" smooth="yes"/>
      <point x="531.913805739" y="795.823705887"/>
      <point x="510.197354012" y="794.232998272"/>
      <point x="449.174685358" y="765.937073012" type="curve"/>
      <point x="445.864450556" y="780.483201835" type="line"/>
    </contour>
  </outline>
</glyph>
<glyph name="W" format="1">
  <advance width="944"/>
  <unicode hex="0057"/>
  <outline>
    <contour>
      <point x="1140.53554944" y="868.3426412" type="line"/>
      <point x="1137.22531464" y="851.2426412" type="line"/>
      <point x="1077.1830858" y="826.74397169"/>
      <point x="1063.51507984" y="815.427266697"/>
      <point x="1033.55548985" y="763.071139892" type="curve" smooth="yes"/>
      <point x="862.433961851" y="466.596517691"/>
      <point x="846.555721089" y="438.472240425"/>
      <point x="707.583548272" y="178.715883663" type="curve"/>
      <point x="691.083548272" y="174.329467764" type="line"/>
      <point x="588.779828355" y="508.241031507" type="line"/>
      <point x="345.683548272" y="82.5071616086" type="line"/>
      <point x="329.183548272" y="78.1207457095" type="line"/>
      <point x="210.441237172" y="504.982194474" type="line"/>
      <point x="186.118188301" y="578.762368589"/>
      <point x="172.75420022" y="590.57595269"/>
      <point x="117.525314642" y="580.162138633" type="curve"/>
      <point x="120.835549444" y="597.262138633" type="line"/>
      <point x="390.335549444" y="668.906931652" type="line"/>
      <point x="387.025314642" y="651.806931652" type="line"/>
      <point x="330.402645988" y="634.193117595"/>
      <point x="313.783085798" y="623.799129423"/>
      <point x="309.950182342" y="603.999129423" type="curve" smooth="yes"/>
      <point x="308.033730614" y="594.099129423"/>
      <point x="309.47194158" y="579.968840329"/>
      <point x="314.035929662" y="565.815834415" type="curve" smooth="yes"/>
      <point x="406.928125143" y="269.525427047" type="line"/>
      <point x="573.758978532" y="554.615193794" type="line"/>
      <point x="551.745255049" y="618.765078816" type="line"/>
      <point x="528.283085798" y="680.822536112"/>
      <point x="518.851091757" y="685.998258846"/>
      <point x="456.325314642" y="670.229878429" type="curve"/>
      <point x="459.635549444" y="687.329878429" type="line"/>
      <point x="753.335549444" y="765.408081434" type="line"/>
      <point x="750.025314642" y="748.308081434" type="line"/>
      <point x="690.451091757" y="731.616984197"/>
      <point x="663.408862914" y="715.891146485"/>
      <point x="659.227513689" y="694.291146485" type="curve" smooth="yes"/>
      <point x="657.311061961" y="684.391146485"/>
      <point x="660.600827158" y="669.045712844"/>
      <point x="666.842146587" y="652.777562384" type="curve" smooth="yes"/>
      <point x="667.419477934" y="650.36999011"/>
      <point x="673.486574478" y="633.20183965"/>
      <point x="674.815460056" y="629.286695103" type="curve" smooth="yes"/>
      <point x="760.60545649" y="360.987155016" type="line"/>
      <point x="957.167014287" y="702.640620842" type="line" smooth="yes"/>
      <point x="973.045255049" y="730.764898108"/>
      <point x="984.175050043" y="755.919464468"/>
      <point x="987.833730614" y="774.819464468" type="curve" smooth="yes"/>
      <point x="992.537748492" y="799.119464468"/>
      <point x="974.65420022" y="803.755765389"/>
      <point x="919.425314642" y="793.341951331" type="curve"/>
      <point x="922.735549444" y="810.441951331" type="line"/>
    </contour>
  </outline>
</glyph>
<glyph name="X" format="1">
  <advance width="722"/>
  <unicode hex="0058"/>
  <outline>
    <contour>
      <point x="670.264450556" y="893.954242169" type="line"/>
      <point x="673.574685358" y="879.408113346" type="line"/>
      <point x="603.871576896" y="840.747012684"/>
      <point x="583.962251508" y="820.435372156"/>
      <point x="526.051636488" y="724.564697068" type="curve"/>
      <point x="397.160201441" y="504.018428539" type="line"/>
      <point x="656.097271755" y="401.044212455" type="line"/>
      <point x="713.502199048" y="380.558155624"/>
      <point x="731.744427891" y="381.245757196"/>
      <point x="791.089765197" y="406.132464095" type="curve"/>
      <point x="794.4" y="391.586335272" type="line"/>
      <point x="467.7" y="226.385850079" type="line"/>
      <point x="464.389765197" y="240.931978902" type="line"/>
      <point x="477.415542313" y="248.372331708"/>
      <point x="489.341319429" y="255.256453924"/>
      <point x="493.741319429" y="257.481376284" type="curve" smooth="yes"/>
      <point x="530.967096544" y="277.158802067"/>
      <point x="546.824867701" y="293.71434878"/>
      <point x="543.688855782" y="307.494891875" type="curve" smooth="yes"/>
      <point x="541.075512517" y="318.978677788"/>
      <point x="515.351934449" y="334.996441906"/>
      <point x="470.515013115" y="354.154533088" type="curve" smooth="yes"/>
      <point x="341.623809305" y="408.494628903" type="line"/>
      <point x="236.50879619" y="228.996501035" type="line" smooth="yes"/>
      <point x="203.82304887" y="173.199025744"/>
      <point x="191.678620979" y="145.715923708"/>
      <point x="194.291964245" y="134.232137795" type="curve" smooth="yes"/>
      <point x="198.299090585" y="116.623666062"/>
      <point x="219.49287366" y="120.51113086"/>
      <point x="283.989765197" y="149.710162162" type="curve"/>
      <point x="287.3" y="135.16403334" type="line"/>
      <point x="31.0" y="5.56230589875" type="line"/>
      <point x="27.6897651972" y="20.1084347216" type="line"/>
      <point x="83.0928736598" y="51.5385377153"/>
      <point x="87.8959821224" y="57.3820335747"/>
      <point x="167.328356381" y="188.03864319" type="curve"/>
      <point x="306.4033397" y="423.124891211" type="line"/>
      <point x="158.627678203" y="484.989473318" type="line"/>
      <point x="26.6106972769" y="536.895291635"/>
      <point x="4.19735401153" y="538.36692693"/>
      <point x="-67.8253146415" y="504.508695771" type="curve"/>
      <point x="-71.1355494443" y="519.054824593" type="line"/>
      <point x="261.064450556" y="687.036462736" type="line"/>
      <point x="264.374685358" y="672.490333913" type="line"/>
      <point x="233.748908243" y="656.150291669" type="line" smooth="yes"/>
      <point x="197.623131127" y="637.029096475"/>
      <point x="182.516914202" y="622.560951807"/>
      <point x="186.001371889" y="607.249237257" type="curve" smooth="yes"/>
      <point x="189.834275345" y="590.406351251"/>
      <point x="223.725859372" y="570.835699125"/>
      <point x="305.634804543" y="539.690978269" type="curve" smooth="yes"/>
      <point x="362.11395472" y="517.88310512" type="line"/>
      <point x="462.371196679" y="686.387992173" type="line" smooth="yes"/>
      <point x="487.999172842" y="730.07976547"/>
      <point x="496.963160923" y="749.978845054"/>
      <point x="494.349817658" y="761.462630967" type="curve" smooth="yes"/>
      <point x="490.342691318" y="779.0711027"/>
      <point x="471.523131127" y="775.530513354"/>
      <point x="411.774685358" y="747.025232956" type="curve"/>
      <point x="408.464450556" y="761.571361779" type="line"/>
    </contour>
  </outline>
</glyph>
<glyph name="Y" format="1">
  <advance width="722"/>
  <unicode hex="0059"/>
  <outline>
    <contour>
      <point x="888.635549444" y="801.376691807" type="line"/>
      <point x="885.325314642" y="784.276691807" type="line"/>
      <point x="828.528423104" y="765.762877749"/>
      <point x="796.095519648" y="738.359756858"/>
      <point x="713.663905825" y="641.321665534" type="curve"/>
      <point x="511.48953396" y="394.642361996" type="line"/>
      <point x="477.690294395" y="220.042361996" type="line" smooth="yes"/>
      <point x="464.449355184" y="151.642361996"/>
      <point x="477.758680571" y="144.936350169"/>
      <point x="575.310234803" y="169.162417837" type="curve"/>
      <point x="572.0" y="152.062417837" type="line"/>
      <point x="235.4" y="62.5795334945" type="line"/>
      <point x="238.710234803" y="79.6795334945" type="line"/>
      <point x="339.50712634" y="109.890456616"/>
      <point x="352.249355184" y="121.814733882"/>
      <point x="367.406746123" y="200.114733882" type="curve" smooth="yes"/>
      <point x="397.721528001" y="356.714733882" type="line"/>
      <point x="287.072321797" y="491.206701696" type="line"/>
      <point x="201.637748492" y="588.863929035"/>
      <point x="188.676868873" y="597.369940863"/>
      <point x="136.225314642" y="585.133409985" type="curve"/>
      <point x="139.535549444" y="602.233409985" type="line"/>
      <point x="447.535549444" y="684.113173436" type="line"/>
      <point x="444.225314642" y="667.013173436" type="line"/>
      <point x="431.951091757" y="662.896468443"/>
      <point x="420.951091757" y="659.972191177"/>
      <point x="416.551091757" y="658.802480271" type="curve" smooth="yes"/>
      <point x="381.002645988" y="647.644793019"/>
      <point x="364.034640029" y="635.450804847"/>
      <point x="360.898628111" y="619.250804847" type="curve" smooth="yes"/>
      <point x="358.982176383" y="609.350804847"/>
      <point x="362.620387349" y="595.805371206"/>
      <point x="371.932821199" y="584.622076199" type="curve" smooth="yes"/>
      <point x="496.055340872" y="428.101379737" type="line"/>
      <point x="692.729712737" y="673.318544643" type="line" smooth="yes"/>
      <point x="705.243056002" y="689.450394182"/>
      <point x="712.833730614" y="701.712532815"/>
      <point x="714.575959458" y="710.712532815" type="curve" smooth="yes"/>
      <point x="718.757308682" y="732.312532815"/>
      <point x="701.451091757" y="734.541261463"/>
      <point x="644.425314642" y="720.235019679" type="curve"/>
      <point x="647.735549444" y="737.335019679" type="line"/>
    </contour>
  </outline>
</glyph>
<glyph name="Z" format="1">
  <advance width="611"/>
  <unicode hex="005A"/>
  <outline>
    <contour>
      <point x="620.736772353" y="454.019446631" type="curve"/>
      <point x="646.036772353" y="466.812750198" type="line"/>
      <point x="650.3" y="318.720127998" type="line"/>
      <point x="29.9" y="5.00607530887" type="line"/>
      <point x="27.2866567346" y="16.4898612216" type="line"/>
      <point x="401.884920161" y="725.804337055" type="line"/>
      <point x="158.784920161" y="602.877376692" type="line" smooth="yes"/>
      <point x="86.1849201612" y="566.166157761"/>
      <point x="39.1240405422" y="530.417581031"/>
      <point x="18.8765041886" y="495.422291366" type="curve" smooth="yes"/>
      <point x="3.83518476009" y="469.88907106"/>
      <point x="-1.48035755277" y="450.127511791"/>
      <point x="-2.84343621928" y="407.607735834" type="curve"/>
      <point x="-31.4434362193" y="393.145740497" type="line"/>
      <point x="-39.2355494443" y="535.1855117" type="line"/>
      <point x="539.364450556" y="827.762801974" type="line"/>
      <point x="541.977793821" y="816.279016061" type="line"/>
      <point x="172.879530394" y="109.745693178" type="line"/>
      <point x="455.579530394" y="252.696954775" type="line" smooth="yes"/>
      <point x="518.279530394" y="284.402098398"/>
      <point x="564.240410013" y="319.594444538"/>
      <point x="586.284837905" y="352.083621883" type="curve" smooth="yes"/>
      <point x="604.451934449" y="380.051119686"/>
      <point x="611.793253877" y="401.690725862"/>
    </contour>
  </outline>
</glyph>
<glyph name="a" format="1">
  <advance width="444"/>
  <unicode hex="0061"/>
  <outline>
    <contour>
      <point x="497.698710368" y="188.653055161" type="curve"/>
      <point x="493.168915374" y="165.253055161" type="line"/>
      <point x="448.048445769" y="120.81808473"/>
      <point x="422.857771156" y="103.877102471"/>
      <point x="385.457771156" y="93.9345597666" type="curve" smooth="yes"/>
      <point x="340.357771156" y="81.9450229756"/>
      <point x="324.216451728" y="95.5813238966"/>
      <point x="327.776041714" y="140.919185264" type="curve"/>
      <point x="251.616451728" y="76.2810939404"/>
      <point x="202.857771156" y="45.3915571494"/>
      <point x="154.457771156" y="32.5247371786" type="curve" smooth="yes"/>
      <point x="87.3577711564" y="14.6866458554"/>
      <point x="46.6235780681" y="41.4198258846"/>
      <point x="57.5996197826" y="98.1198258846" type="curve" smooth="yes"/>
      <point x="63.3489749664" y="127.819825885"/>
      <point x="84.6725530345" y="162.513814057"/>
      <point x="112.357010722" y="186.947224043" type="curve" smooth="yes"/>
      <point x="166.277480327" y="233.721616287"/>
      <point x="186.371263402" y="245.892887639"/>
      <point x="366.573082232" y="346.726757537" type="curve"/>
      <point x="377.200678178" y="401.626757537" type="line" smooth="yes"/>
      <point x="386.608713933" y="450.226757537"/>
      <point x="361.96117758" y="468.431208919"/>
      <point x="308.06117758" y="454.102250315" type="curve" smooth="yes"/>
      <point x="264.06117758" y="442.40514125"/>
      <point x="225.028274124" y="413.247453999"/>
      <point x="220.324256246" y="388.947453999" type="curve" smooth="yes"/>
      <point x="219.104696056" y="382.647453999"/>
      <point x="218.810912981" y="375.739881725"/>
      <point x="219.442907022" y="368.224737179" type="curve" smooth="yes"/>
      <point x="219.323346831" y="362.217164905"/>
      <point x="219.552232409" y="358.009592632"/>
      <point x="218.855340872" y="354.409592632" type="curve" smooth="yes"/>
      <point x="215.022437416" y="334.609592632"/>
      <point x="188.437979729" y="310.468610373"/>
      <point x="162.037979729" y="303.450344934" type="curve" smooth="yes"/>
      <point x="136.737979729" y="296.724507222"/>
      <point x="118.222437416" y="308.87595269"/>
      <point x="122.229563756" y="329.57595269" type="curve" smooth="yes"/>
      <point x="133.205605471" y="386.27595269"/>
      <point x="223.142526804" y="452.015604459"/>
      <point x="326.542526804" y="479.503810761" type="curve" smooth="yes"/>
      <point x="391.442526804" y="496.757046631"/>
      <point x="435.432292001" y="492.231438875"/>
      <point x="453.360268165" y="466.26484886" type="curve" smooth="yes"/>
      <point x="465.67891894" y="449.051264759"/>
      <point x="466.126455294" y="424.413403392"/>
      <point x="457.066865307" y="377.613403392" type="curve" smooth="yes"/>
      <point x="423.093402857" y="202.113403392" type="line" smooth="yes"/>
      <point x="415.427595946" y="162.513403392"/>
      <point x="420.688475565" y="151.960397479"/>
      <point x="445.988475565" y="158.686235191" type="curve" smooth="yes"/>
      <point x="462.488475565" y="163.07265109"/>
      <point x="476.559589987" y="171.081783809"/>
    </contour>
    <contour>
      <point x="337.129414776" y="194.626757537" type="curve" smooth="yes"/>
      <point x="362.391733008" y="325.126757537" type="line"/>
      <point x="221.625926096" y="250.143002617"/>
      <point x="170.253902259" y="205.753465826"/>
      <point x="159.974752082" y="152.653465826" type="curve" smooth="yes"/>
      <point x="159.277860545" y="149.053465826" type="line" smooth="yes"/>
      <point x="151.786276517" y="110.353465826"/>
      <point x="176.662698449" y="87.9414421713"/>
      <point x="215.162698449" y="98.1764126026" type="curve" smooth="yes"/>
      <point x="238.262698449" y="104.317394861"/>
      <point x="270.630704408" y="120.605371206"/>
      <point x="299.469824789" y="140.223636645" type="curve" smooth="yes"/>
      <point x="324.660499402" y="157.164618904"/>
      <point x="331.728505361" y="166.726757537"/>
    </contour>
  </outline>
</glyph>
<glyph name="b" format="1">
  <advance width="500"/>
  <unicode hex="0062"/>
  <outline>
    <contour>
      <point x="69.6542157529" y="606.46716069" type="line"/>
      <point x="122.966418366" y="372.19792807" type="line"/>
      <point x="136.429497033" y="420.836240515"/>
      <point x="193.957473196" y="480.658700919"/>
      <point x="261.057473196" y="514.588766901" type="curve" smooth="yes"/>
      <point x="371.057473196" y="570.211825889"/>
      <point x="471.034424325" y="540.520292333"/>
      <point x="492.463839101" y="446.353247848" type="curve" smooth="yes"/>
      <point x="517.377711564" y="336.874488813"/>
      <point x="424.342228844" y="195.924538619"/>
      <point x="279.142228844" y="122.502100756" type="curve" smooth="yes"/>
      <point x="191.142228844" y="78.0036535656"/>
      <point x="91.8928736598" y="55.9883824343"/>
      <point x="86.4919642447" y="79.7215399873" type="curve" smooth="yes"/>
      <point x="-3.92971273656" y="477.060532569" type="line" smooth="yes"/>
      <point x="-11.2470738795" y="509.215133124"/>
      <point x="-22.7150798388" y="511.099329363"/>
      <point x="-66.7150798388" y="488.850105768" type="curve" smooth="yes"/>
      <point x="-74.4150798388" y="484.956491639"/>
      <point x="-78.8150798388" y="482.731569279"/>
      <point x="-85.2408569544" y="478.628600013" type="curve"/>
      <point x="-88.0284231041" y="490.877971653" type="line"/>
      <point x="-57.522206179" y="513.133344579" type="line" smooth="yes"/>
      <point x="-8.08710367561" y="549.228796761"/>
      <point x="20.2191132495" y="570.371708508"/>
      <point x="63.8057699842" y="605.217179195" type="curve"/>
    </contour>
    <contour>
      <point x="132.200231237" y="331.621884511" type="curve" smooth="yes"/>
      <point x="176.104398095" y="138.694281177" type="line" smooth="yes"/>
      <point x="180.459970204" y="119.554637989"/>
      <point x="233.967096544" y="126.976542801"/>
      <point x="291.167096544" y="155.900533474" type="curve" smooth="yes"/>
      <point x="381.367096544" y="201.511441844"/>
      <point x="423.016831945" y="277.207996719"/>
      <point x="403.678091782" y="362.188012473" type="curve" smooth="yes"/>
      <point x="382.42289989" y="455.58947123"/>
      <point x="313.83351491" y="487.493628483"/>
      <point x="228.03351491" y="444.107642473" type="curve" smooth="yes"/>
      <point x="170.83351491" y="415.183651799"/>
      <point x="125.405538747" y="361.479727884"/>
    </contour>
  </outline>
</glyph>
<glyph name="c" format="1">
  <advance width="444"/>
  <unicode hex="0063"/>
  <outline>
    <contour>
      <point x="464.97876996" y="256.786235191" type="curve"/>
      <point x="478.810764" y="252.780223363" type="line"/>
      <point x="435.531613823" y="190.907391565"/>
      <point x="409.927595946" y="161.051264759"/>
      <point x="376.046246721" y="131.555716141" type="curve" smooth="yes"/>
      <point x="331.045337306" y="93.1283179829"/>
      <point x="284.257771156" y="67.0312089185"/>
      <point x="234.757771156" y="53.8719612211" type="curve" smooth="yes"/>
      <point x="112.657771156" y="21.4124835674"/>
      <point x="41.9604994016" y="82.0106931652"/>
      <point x="64.609474368" y="199.010693165" type="curve" smooth="yes"/>
      <point x="78.3730822322" y="270.110693165"/>
      <point x="121.020238369" y="339.49866951"/>
      <point x="183.68604528" y="393.720055841" type="curve" smooth="yes"/>
      <point x="235.058069117" y="438.109592632"/>
      <point x="294.642526804" y="471.023406689"/>
      <point x="348.542526804" y="485.352365293" type="curve" smooth="yes"/>
      <point x="440.942526804" y="509.916294328"/>
      <point x="509.754051239" y="488.086235191"/>
      <point x="499.997569715" y="437.686235191" type="curve" smooth="yes"/>
      <point x="495.990443375" y="416.986235191"/>
      <point x="468.480208572" y="393.452825205"/>
      <point x="439.880208572" y="385.849704313" type="curve" smooth="yes"/>
      <point x="416.780208572" y="379.708722055"/>
      <point x="400.116220491" y="390.645022976"/>
      <point x="396.194461253" y="413.505601163" type="curve" smooth="yes"/>
      <point x="393.427364709" y="431.551034803" type="line" smooth="yes"/>
      <point x="388.87361143" y="461.926757537"/>
      <point x="376.490063158" y="468.025197091"/>
      <point x="336.890063158" y="457.497798933" type="curve" smooth="yes"/>
      <point x="247.790063158" y="433.811153078"/>
      <point x="174.920238369" y="353.827628114"/>
      <point x="156.97528128" y="261.127628114" type="curve" smooth="yes"/>
      <point x="136.939649579" y="157.627628114"/>
      <point x="193.40181883" y="104.343002617"/>
      <point x="293.50181883" y="130.953925739" type="curve" smooth="yes"/>
      <point x="356.20181883" y="147.622306155"/>
      <point x="399.983168055" y="179.749704313"/>
    </contour>
  </outline>
</glyph>
<glyph name="d" format="1">
  <advance width="500"/>
  <unicode hex="0064"/>
  <outline>
    <contour>
      <point x="400.142228844" y="183.687465642" type="line"/>
      <point x="395.21956019" y="183.759300465" type="line"/>
      <point x="384.069295592" y="232.756787026" type="line"/>
      <point x="354.857771156" y="177.862417777"/>
      <point x="316.542228844" y="141.413940811"/>
      <point x="254.942228844" y="110.265027778" type="curve" smooth="yes"/>
      <point x="133.942228844" y="49.0796628921"/>
      <point x="36.2848379045" y="73.9683269454"/>
      <point x="13.9843087068" y="171.963300068" type="curve" smooth="yes"/>
      <point x="-10.7553408719" y="280.676473375"/>
      <point x="71.8574731958" y="418.917105443"/>
      <point x="198.357473196" y="482.883623278" type="curve" smooth="yes"/>
      <point x="242.357473196" y="505.132846873"/>
      <point x="273.973924924" y="511.729629797"/>
      <point x="321.349057223" y="508.367648932" type="curve"/>
      <point x="294.170287263" y="627.799022425" type="line" smooth="yes"/>
      <point x="287.027149005" y="659.188037253"/>
      <point x="275.384920161" y="661.837819219"/>
      <point x="234.684920161" y="641.257287394" type="curve" smooth="yes"/>
      <point x="225.884920161" y="636.807442675"/>
      <point x="219.284920161" y="633.470059135"/>
      <point x="210.659143046" y="628.254628689" type="curve"/>
      <point x="207.871576896" y="640.504000329" type="line"/>
      <point x="275.309787862" y="689.117715449"/>
      <point x="312.067559018" y="716.24164337"/>
      <point x="361.905769984" y="755.955669052" type="curve"/>
      <point x="367.754215753" y="757.205650546" type="line"/>
      <point x="466.538591183" y="323.118543044" type="line" smooth="yes"/>
      <point x="474.552843864" y="287.901599578"/>
      <point x="485.269295592" y="283.930001294"/>
      <point x="524.869295592" y="303.95430253" type="curve" smooth="yes"/>
      <point x="528.169295592" y="305.6229943"/>
      <point x="530.369295592" y="306.735455479"/>
      <point x="549.995072707" y="317.513191825" type="curve"/>
      <point x="552.782638857" y="305.263820184" type="line"/>
    </contour>
    <contour>
      <point x="376.229265796" y="267.208144764" type="curve" smooth="yes"/>
      <point x="336.158002393" y="443.292862093" type="line" smooth="yes"/>
      <point x="326.924189523" y="483.868905651"/>
      <point x="264.835713958" y="492.596135941"/>
      <point x="206.535713958" y="463.115914678" type="curve" smooth="yes"/>
      <point x="122.935713958" y="420.842389847"/>
      <point x="81.9282074002" y="336.933747107"/>
      <point x="101.615393333" y="250.422559897" type="curve" smooth="yes"/>
      <point x="123.044808108" y="156.255515413"/>
      <point x="197.482638857" y="125.601339655"/>
      <point x="288.782638857" y="171.768478614" type="curve" smooth="yes"/>
      <point x="320.682638857" y="187.899165721"/>
      <point x="346.440410013" y="209.460787743"/>
      <point x="362.755952326" y="234.784652911" type="curve" smooth="yes"/>
      <point x="371.839500598" y="248.768401812"/>
      <point x="377.448825986" y="261.849044672"/>
    </contour>
  </outline>
</glyph>
<glyph name="e" format="1">
  <advance width="444"/>
  <unicode hex="0065"/>
  <outline>
    <contour>
      <point x="477.372553035" y="266.910512457" type="curve"/>
      <point x="493.752992844" y="265.289356082" type="line"/>
      <point x="428.736921333" y="155.807391565"/>
      <point x="335.957771156" y="80.7753120692"/>
      <point x="231.457771156" y="52.9946780412" type="curve" smooth="yes"/>
      <point x="104.957771156" y="19.3654894811"/>
      <point x="40.7409392111" y="75.7106931652"/>
      <point x="64.7836972524" y="199.910693165" type="curve" smooth="yes"/>
      <point x="79.0699737697" y="273.710693165"/>
      <point x="121.139798559" y="345.506241784"/>
      <point x="179.982936818" y="396.150344934" type="curve" smooth="yes"/>
      <point x="227.706514886" y="437.862598546"/>
      <point x="282.542526804" y="467.806701696"/>
      <point x="337.542526804" y="482.428088027" type="curve" smooth="yes"/>
      <point x="394.742526804" y="497.63432981"/>
      <point x="441.683846233" y="492.186005234"/>
      <point x="468.411822396" y="468.558837033" type="curve"/>
      <point x="490.336690096" y="447.069530198"/>
      <point x="496.28422645" y="423.893807464"/>
      <point x="493.759738967" y="367.733229277" type="curve"/>
      <point x="154.959738967" y="277.665489481" type="line"/>
      <point x="146.532143021" y="223.350344934"/>
      <point x="148.482787837" y="195.697339021"/>
      <point x="161.662318232" y="166.7610381" type="curve"/>
      <point x="183.631613823" y="123.941442171"/>
      <point x="225.879150177" y="110.415834415"/>
      <point x="288.579150177" y="127.084214832" type="curve" smooth="yes"/>
      <point x="358.979150177" y="145.799589335"/>
      <point x="411.331613823" y="184.473981579"/>
    </contour>
    <contour>
      <point x="162.734871266" y="307.050344934" type="curve"/>
      <point x="387.134871266" y="366.705601163" type="line"/>
      <point x="387.992262205" y="441.204040717"/>
      <point x="366.470502967" y="459.385775278"/>
      <point x="299.370502967" y="441.547683955" type="curve" smooth="yes"/>
      <point x="232.270502967" y="423.709592632"/>
      <point x="188.424256246" y="380.467049927"/>
    </contour>
  </outline>
</glyph>
<glyph name="f" format="1">
  <advance width="333"/>
  <unicode hex="0066"/>
  <outline>
    <contour>
      <point x="281.499702039" y="516.388829654" type="line"/>
      <point x="287.074834339" y="491.890086373" type="line"/>
      <point x="152.874834339" y="424.029954409" type="line"/>
      <point x="207.580820027" y="183.636035968" type="line" smooth="yes"/>
      <point x="220.647536354" y="126.217106405"/>
      <point x="234.663988082" y="123.914199891"/>
      <point x="325.386656735" y="167.228351078" type="curve"/>
      <point x="328.0" y="155.744565165" type="line"/>
      <point x="42.0" y="11.1246117975" type="line"/>
      <point x="39.3866567346" y="22.6083977103" type="line"/>
      <point x="117.889765197" y="65.7193430913"/>
      <point x="127.899090585" y="81.0249083101"/>
      <point x="115.180820027" y="136.912666419" type="curve" smooth="yes"/>
      <point x="60.4748343388" y="377.306584859" type="line"/>
      <point x="-29.7251656612" y="331.695676489" type="line"/>
      <point x="-35.3002979606" y="356.19441977" type="line"/>
      <point x="54.8997020394" y="401.80532814" type="line"/>
      <point x="42.0618712908" y="463.608416931"/>
      <point x="44.5898474539" y="495.619347841"/>
      <point x="65.5240405422" y="543.767115188" type="curve" smooth="yes"/>
      <point x="86.1097878618" y="593.446053991"/>
      <point x="139.705769984" y="643.597089897"/>
      <point x="207.905769984" y="678.083386469" type="curve" smooth="yes"/>
      <point x="273.905769984" y="711.457221862"/>
      <point x="326.835564977" y="716.026138901"/>
      <point x="333.107588814" y="688.46505271" type="curve" smooth="yes"/>
      <point x="337.114715155" y="670.856580977"/>
      <point x="319.350727073" y="646.507656674"/>
      <point x="294.050727073" y="633.714353107" type="curve" smooth="yes"/>
      <point x="275.350727073" y="624.258433079"/>
      <point x="260.408498229" y="625.239523276"/>
      <point x="238.278703236" y="636.245062753" type="curve" smooth="yes"/>
      <point x="213.42623959" y="648.434898234"/>
      <point x="196.284010746" y="648.303527251"/>
      <point x="173.184010746" y="636.622684863" type="curve" smooth="yes"/>
      <point x="131.384010746" y="615.485922448"/>
      <point x="115.884920161" y="581.184383687"/>
      <point x="125.989847454" y="536.780411491" type="curve" smooth="yes"/>
      <point x="146.199702039" y="447.972467099" type="line"/>
    </contour>
  </outline>
</glyph>
<glyph name="g" format="1">
  <advance width="500"/>
  <unicode hex="0067"/>
  <outline>
    <contour>
      <point x="584.598479131" y="486.641031507" type="line"/>
      <point x="493.298479131" y="462.369530198" type="line"/>
      <point x="503.123346831" y="437.66351837"/>
      <point x="504.616220491" y="418.425657004"/>
      <point x="499.563756845" y="392.325657004" type="curve" smooth="yes"/>
      <point x="490.852612627" y="347.325657004"/>
      <point x="468.254811674" y="311.439241104"/>
      <point x="427.076570912" y="276.589126126" type="curve" smooth="yes"/>
      <point x="388.272553035" y="243.223866601"/>
      <point x="341.659209769" y="218.026757537"/>
      <point x="300.959209769" y="207.206931652" type="curve" smooth="yes"/>
      <point x="294.359209769" y="205.452365293"/>
      <point x="280.233432654" y="202.550804847"/>
      <point x="259.681878422" y="198.794678041" type="curve" smooth="yes"/>
      <point x="256.381878422" y="197.917394861"/>
      <point x="248.856101307" y="196.770400775"/>
      <point x="239.130324191" y="195.038551236" type="curve"/>
      <point x="208.036541116" y="179.943002617"/>
      <point x="165.638740164" y="138.792887639"/>
      <point x="162.154282476" y="120.792887639" type="curve" smooth="yes"/>
      <point x="159.366716327" y="106.392887639"/>
      <point x="185.298710368" y="105.603580804"/>
      <point x="243.250264599" y="119.302250315" type="curve" smooth="yes"/>
      <point x="384.104927293" y="151.625427047" type="line" smooth="yes"/>
      <point x="464.98225864" y="170.565078816"/>
      <point x="509.364897497" y="146.509181967"/>
      <point x="498.563078667" y="90.709181967" type="curve" smooth="yes"/>
      <point x="491.942609061" y="56.509181967"/>
      <point x="467.667476762" y="22.7379106147"/>
      <point x="420.466567346" y="-16.2743429965" type="curve" smooth="yes"/>
      <point x="355.949206203" y="-69.2805847802"/>
      <point x="265.61941121" y="-115.489947456"/>
      <point x="183.11941121" y="-137.422026951" type="curve" smooth="yes"/>
      <point x="78.6194112102" y="-165.202660979"/>
      <point x="0.485218121884" y="-148.412023655"/>
      <point x="9.7190309928" y="-100.712023655" type="curve" smooth="yes"/>
      <point x="16.165277714" y="-67.4120236549"/>
      <point x="51.6146328978" y="-29.8164750365"/>
      <point x="138.774222884" y="37.7458935528" type="curve"/>
      <point x="97.1586805715" y="43.7563567618"/>
      <point x="86.0493551838" y="51.0472240425"/>
      <point x="89.7080357553" y="69.9472240425" type="curve" smooth="yes"/>
      <point x="93.1924934424" y="87.9472240425"/>
      <point x="110.97695113" y="109.748784488"/>
      <point x="152.329414776" y="145.498899467" type="curve" smooth="yes"/>
      <point x="159.800529198" y="151.753465826"/>
      <point x="182.562318232" y="172.317164905"/>
      <point x="206.59833015" y="194.073291711" type="curve"/>
      <point x="139.747685334" y="204.473061755"/>
      <point x="116.66815494" y="230.777513136"/>
      <point x="127.644196654" y="287.477513136" type="curve" smooth="yes"/>
      <point x="143.498479131" y="369.377513136"/>
      <point x="237.442526804" y="455.817164905"/>
      <point x="339.742526804" y="483.01294348" type="curve" smooth="yes"/>
      <point x="368.342526804" y="490.616064372"/>
      <point x="397.171412382" y="494.01161299"/>
      <point x="425.129183539" y="492.907161609" type="curve" smooth="yes"/>
      <point x="447.935400464" y="492.140571594" type="line" smooth="yes"/>
      <point x="468.715840274" y="491.689126126"/>
      <point x="484.69317162" y="493.375542025"/>
      <point x="506.69317162" y="499.224096558" type="curve" smooth="yes"/>
      <point x="591.39317162" y="521.741031507" type="line"/>
    </contour>
    <contour>
      <point x="161.351554231" y="41.1868758116" type="curve"/>
      <point x="106.440410013" y="-16.095088706"/>
      <point x="96.4755125168" y="-29.8420827923"/>
      <point x="92.4683861766" y="-50.5420827923" type="curve" smooth="yes"/>
      <point x="84.8025792649" y="-90.1420827923"/>
      <point x="143.550115619" y="-99.2812746489"/>
      <point x="240.350115619" y="-73.5476347073" type="curve" smooth="yes"/>
      <point x="364.650115619" y="-40.5033016004"/>
      <point x="455.044808108" y="16.821205622"/>
      <point x="465.149735401" y="69.021205622" type="curve" smooth="yes"/>
      <point x="471.421759238" y="101.421205622"/>
      <point x="437.386656735" y="103.471090644"/>
      <point x="337.286656735" y="76.8601675224" type="curve" smooth="yes"/>
      <point x="283.386656735" y="62.5312089185"/>
      <point x="196.431994041" y="44.5369907897"/>
    </contour>
    <contour>
      <point x="226.087334913" y="348.649014445" type="curve" smooth="yes"/>
      <point x="225.56466626" y="345.949014445" type="line" smooth="yes"/>
      <point x="208.839269361" y="259.549014445"/>
      <point x="243.714781878" y="213.330978962"/>
      <point x="309.714781878" y="230.876642559" type="curve" smooth="yes"/>
      <point x="360.314781878" y="244.328317983"/>
      <point x="398.312582831" y="284.308722055"/>
      <point x="408.069064355" y="334.708722055" type="curve" smooth="yes"/>
      <point x="414.863756845" y="369.808722055"/>
      <point x="409.678009525" y="407.699589335"/>
      <point x="395.975810477" y="433.935890256" type="curve" smooth="yes"/>
      <point x="383.602497008" y="456.257046631"/>
      <point x="357.964286042" y="463.953925739"/>
      <point x="323.864286042" y="454.888666214" type="curve" smooth="yes"/>
      <point x="273.264286042" y="441.43699079"/>
      <point x="236.36648509" y="401.749014445"/>
    </contour>
  </outline>
</glyph>
<glyph name="h" format="1">
  <advance width="500"/>
  <unicode hex="0068"/>
  <outline>
    <contour>
      <point x="132.941550666" y="349.924107149" type="curve"/>
      <point x="174.929265796" y="165.417946817" type="line" smooth="yes"/>
      <point x="186.950644816" y="112.592531618"/>
      <point x="200.041319429" y="108.967808787"/>
      <point x="264.886656735" y="136.635668635" type="curve"/>
      <point x="267.5" y="125.151882722" type="line"/>
      <point x="29.9" y="5.00607530887" type="line"/>
      <point x="27.2866567346" y="16.4898612216" type="line"/>
      <point x="89.6928736598" y="54.8759212545"/>
      <point x="94.7248677006" y="65.1035763414"/>
      <point x="82.5292657956" y="118.694577268" type="curve" smooth="yes"/>
      <point x="0.470287263445" y="479.285454928" type="line" smooth="yes"/>
      <point x="-7.02129676391" y="512.205641211"/>
      <point x="-17.2150798388" y="513.880482312"/>
      <point x="-64.5150798388" y="489.962566948" type="curve" smooth="yes"/>
      <point x="-70.0150798388" y="487.181413998"/>
      <point x="-73.3150798388" y="485.512722229"/>
      <point x="-77.5408569544" y="482.522214142" type="curve"/>
      <point x="-80.3284231041" y="494.771585782" type="line"/>
      <point x="-52.022206179" y="515.914497529" type="line" smooth="yes"/>
      <point x="6.79022767132" y="559.312782202"/>
      <point x="32.8964445965" y="579.343232769"/>
      <point x="68.2057699842" y="607.442101555" type="curve"/>
      <point x="74.2284386372" y="607.926497322" type="line"/>
      <point x="127.192195482" y="375.188436157" type="line"/>
      <point x="167.33882242" y="446.710186942"/>
      <point x="209.357473196" y="488.445929177"/>
      <point x="274.257473196" y="521.26353398" type="curve" smooth="yes"/>
      <point x="363.357473196" y="566.31821176"/>
      <point x="418.965508951" y="548.338267248"/>
      <point x="437.258911809" y="467.951765859" type="curve" smooth="yes"/>
      <point x="471.929265796" y="315.600206083" type="line" smooth="yes"/>
      <point x="483.950644816" y="262.774790885"/>
      <point x="491.944427891" y="259.987488604"/>
      <point x="553.086656735" y="282.368083182" type="curve"/>
      <point x="555.7" y="270.884297269" type="line"/>
      <point x="322.5" y="152.963412216" type="line"/>
      <point x="319.886656735" y="164.447198128" type="line"/>
      <point x="382.641319429" y="201.302086706"/>
      <point x="391.376421932" y="216.817007063"/>
      <point x="379.529265796" y="268.876836534" type="curve" smooth="yes"/>
      <point x="345.033134693" y="420.462810582" type="line" smooth="yes"/>
      <point x="332.837532788" y="474.053811508"/>
      <point x="299.065508951" y="487.709132952"/>
      <point x="244.065508951" y="459.897603458" type="curve" smooth="yes"/>
      <point x="201.165508951" y="438.204610453"/>
      <point x="171.127297985" y="408.502735389"/>
    </contour>
  </outline>
</glyph>
<glyph name="i" format="1">
  <advance width="278"/>
  <unicode hex="0069"/>
  <outline>
    <contour>
      <point x="272.642526804" y="465.174852157" type="line"/>
      <point x="276.519858151" y="463.644563063" type="line"/>
      <point x="214.670734204" y="144.144563063" type="line" smooth="yes"/>
      <point x="202.126686531" y="79.3445630631"/>
      <point x="209.184457687" y="72.683984876"/>
      <point x="280.913343265" y="87.4842148322" type="curve"/>
      <point x="278.3" y="73.9842148322" type="line"/>
      <point x="17.6" y="4.67884362575" type="line"/>
      <point x="20.2133432654" y="18.1788436258" type="line"/>
      <point x="96.8102348028" y="41.9563567618"/>
      <point x="109.726686531" y="54.7806340279"/>
      <point x="122.270734204" y="119.580634028" type="curve" smooth="yes"/>
      <point x="162.690443375" y="328.380634028" type="line" smooth="yes"/>
      <point x="170.356250287" y="367.980634028"/>
      <point x="163.243816437" y="379.748784488"/>
      <point x="136.843816437" y="372.73051905" type="curve" smooth="yes"/>
      <point x="126.943816437" y="370.09866951"/>
      <point x="112.469593552" y="365.397109064"/>
      <point x="98.9211477836" y="360.087976345" type="curve" smooth="yes"/>
      <point x="89.9469248992" y="356.848554532" type="line"/>
      <point x="92.5602681646" y="370.348554532" type="line"/>
    </contour>
    <contour>
      <point x="259.794230016" y="652.130749006" type="curve" smooth="yes"/>
      <point x="291.694230016" y="660.611153078"/>
      <point x="312.987103676" y="646.63699079"/>
      <point x="308.108862914" y="621.43699079" type="curve" smooth="yes"/>
      <point x="303.056399267" y="595.33699079"/>
      <point x="273.923495811" y="568.811153078"/>
      <point x="242.023495811" y="560.330749006" type="curve" smooth="yes"/>
      <point x="211.223495811" y="552.142772661"/>
      <point x="191.030622152" y="566.409362676"/>
      <point x="195.908862914" y="591.609362676" type="curve" smooth="yes"/>
      <point x="200.787103676" y="616.809362676"/>
      <point x="230.094230016" y="644.235200388"/>
    </contour>
  </outline>
</glyph>
<glyph name="j" format="1">
  <advance width="278"/>
  <unicode hex="006A"/>
  <outline>
    <contour>
      <point x="152.680141849" y="457.225181321" type="line"/>
      <point x="232.3" y="107.352503846" type="line" smooth="yes"/>
      <point x="257.039649579" y="-1.36066946153"/>
      <point x="205.38058879" y="-92.3627895554"/>
      <point x="84.3805887898" y="-153.548154442" type="curve" smooth="yes"/>
      <point x="24.9805887898" y="-183.584606295"/>
      <point x="-23.0265375504" y="-188.225358157"/>
      <point x="-28.6016698498" y="-163.726614876" type="curve" smooth="yes"/>
      <point x="-32.4345733057" y="-146.883728871"/>
      <point x="-15.5963623397" y="-123.856620886"/>
      <point x="9.70363766027" y="-111.063317318" type="curve" smooth="yes"/>
      <point x="27.3036376603" y="-102.16362788"/>
      <point x="44.2716436195" y="-101.26667117"/>
      <point x="68.0787699597" y="-108.862992285" type="curve" smooth="yes"/>
      <point x="90.4374505312" y="-115.484372535"/>
      <point x="102.657010722" y="-115.281166729"/>
      <point x="119.157010722" y="-106.937707881" type="curve" smooth="yes"/>
      <point x="134.557010722" y="-99.1504796225"/>
      <point x="148.563227647" y="-85.2385655441"/>
      <point x="153.420998803" y="-74.2453247297" type="curve" smooth="yes"/>
      <point x="162.036541116" y="-52.8150736907"/>
      <point x="160.980969007" y="-32.0067387332"/>
      <point x="147.740029796" y="26.1777765581" type="curve" smooth="yes"/>
      <point x="81.7095566248" y="316.334767287" type="line" smooth="yes"/>
      <point x="74.2179725974" y="349.25495357"/>
      <point x="61.3561835633" y="357.263835629"/>
      <point x="36.0561835633" y="344.470532062" type="curve" smooth="yes"/>
      <point x="25.0561835633" y="338.908226163"/>
      <point x="8.7304064477" y="329.799181588"/>
      <point x="-7.42114778358" y="319.924551284" type="curve" smooth="yes"/>
      <point x="-12.7469248992" y="316.377812608" type="line"/>
      <point x="-15.5344910489" y="328.627184248" type="line"/>
      <point x="46.2294970326" y="375.225332146"/>
      <point x="85.764599536" y="406.314709019"/>
      <point x="146.657473196" y="456.740785554" type="curve"/>
    </contour>
    <contour>
      <point x="57.2057699842" y="601.879795656" type="curve" smooth="yes"/>
      <point x="89.1057699842" y="618.010482763"/>
      <point x="118.412896324" y="613.195314597"/>
      <point x="123.291137086" y="591.758914226" type="curve" smooth="yes"/>
      <point x="128.343600733" y="569.556928128"/>
      <point x="106.876504189" y="539.920738556"/>
      <point x="74.9765041886" y="523.79005145" type="curve" smooth="yes"/>
      <point x="44.1765041886" y="508.215594933"/>
      <point x="15.9693778484" y="513.586993689"/>
      <point x="11.0911370864" y="535.023394059" type="curve" smooth="yes"/>
      <point x="6.21289632439" y="556.45979443"/>
      <point x="27.5057699842" y="586.86156973"/>
    </contour>
  </outline>
</glyph>
<glyph name="k" format="1">
  <advance width="500"/>
  <unicode hex="006B"/>
  <outline>
    <contour>
      <point x="116.240856954" y="562.746994086" type="curve"/>
      <point x="119.028423104" y="577.146994086" type="line"/>
      <point x="153.422206179" y="593.119825885" type="line" smooth="yes"/>
      <point x="220.009772329" y="624.480634028"/>
      <point x="253.303555404" y="640.1610381"/>
      <point x="297.194230016" y="662.073291711" type="curve"/>
      <point x="301.245784247" y="661.443002617" type="line"/>
      <point x="228.072172817" y="283.443002617" type="line"/>
      <point x="400.027364709" y="433.305601163" type="line" smooth="yes"/>
      <point x="417.518039321" y="448.199589335"/>
      <point x="429.857159702" y="463.431438875"/>
      <point x="431.250942777" y="470.631438875" type="curve" smooth="yes"/>
      <point x="433.690063158" y="483.231438875"/>
      <point x="422.286954695" y="483.614733882"/>
      <point x="379.56117758" y="473.110052544" type="curve"/>
      <point x="382.000297961" y="485.710052544" type="line"/>
      <point x="606.400297961" y="545.365308773" type="line"/>
      <point x="603.786954695" y="531.865308773" type="line"/>
      <point x="594.986954695" y="529.52588696" type="line" smooth="yes"/>
      <point x="576.286954695" y="524.554615607"/>
      <point x="560.538508927" y="518.660627435"/>
      <point x="543.341617389" y="510.674211536" type="curve" smooth="yes"/>
      <point x="510.047834314" y="494.993807464"/>
      <point x="433.833581634" y="435.463288414"/>
      <point x="344.234871266" y="355.300919825" type="curve" smooth="yes"/>
      <point x="307.630853389" y="322.520515753" type="line"/>
      <point x="442.131613823" y="192.661957925" type="line"/>
      <point x="479.446246721" y="159.043922442"/>
      <point x="510.236011918" y="151.009181967"/>
      <point x="558.113343265" y="161.176001938" type="curve"/>
      <point x="555.5" y="147.676001938" type="line"/>
      <point x="315.7" y="83.926757537" type="line"/>
      <point x="318.313343265" y="97.426757537" type="line"/>
      <point x="339.213343265" y="102.982884343" type="line" smooth="yes"/>
      <point x="352.413343265" y="106.492017062"/>
      <point x="363.358680571" y="114.523866601"/>
      <point x="364.926686531" y="122.623866601" type="curve" smooth="yes"/>
      <point x="365.797800952" y="127.123866601"/>
      <point x="363.543138259" y="131.646583422"/>
      <point x="356.485367102" y="138.307161609" type="curve" smooth="yes"/>
      <point x="353.708035755" y="140.129878429"/>
      <point x="352.030704408" y="142.245022976"/>
      <point x="350.353373061" y="144.360167522" type="curve" smooth="yes"/>
      <point x="347.750264599" y="147.082884343" type="line"/>
      <point x="226.329943974" y="274.443002617" type="line"/>
      <point x="194.272933252" y="108.843002617" type="line" smooth="yes"/>
      <point x="188.175132299" y="77.3430026172"/>
      <point x="202.236011918" y="69.1294185163"/>
      <point x="245.88756615" y="79.0265275807" type="curve" smooth="yes"/>
      <point x="267.713343265" y="83.9750821129" type="line"/>
      <point x="265.1" y="70.4750821129" type="line"/>
      <point x="7.7" y="2.04699408627" type="line"/>
      <point x="10.3133432654" y="15.5469940863" type="line"/>
      <point x="91.6040178776" y="47.4017904022"/>
      <point x="95.4266865307" y="50.979073582"/>
      <point x="104.486276517" y="97.779073582" type="curve" smooth="yes"/>
      <point x="188.461706777" y="531.579073582" type="line" smooth="yes"/>
      <point x="196.824405226" y="574.779073582"/>
      <point x="188.089302723" y="583.554796316"/>
      <point x="151.789302723" y="573.904681338" type="curve" smooth="yes"/>
      <point x="140.789302723" y="570.980404072"/>
      <point x="130.715079839" y="567.448554532"/>
    </contour>
  </outline>
</glyph>
<glyph name="l" format="1">
  <advance width="278"/>
  <unicode hex="006C"/>
  <outline>
    <contour>
      <point x="-67.6408569544" y="487.528289451" type="line"/>
      <point x="-70.4284231041" y="499.777661091" type="line"/>
      <point x="2.50978786181" y="551.17252916"/>
      <point x="42.5675590182" y="579.96514885"/>
      <point x="96.8057699842" y="621.904096892" type="curve"/>
      <point x="101.554215753" y="622.597847796" type="line"/>
      <point x="205.565277714" y="165.543168469" type="line" smooth="yes"/>
      <point x="215.147536354" y="123.435953455"/>
      <point x="230.089765197" y="122.454863259"/>
      <point x="300.086656735" y="154.435047511" type="curve"/>
      <point x="302.7" y="142.951261598" type="line"/>
      <point x="43.1" y="11.6808423874" type="line"/>
      <point x="40.4866567346" y="23.1646283001" type="line"/>
      <point x="108.915542313" y="62.0350840998"/>
      <point x="122.050644816" y="79.7749268158"/>
      <point x="112.642609061" y="121.116556102" type="curve" smooth="yes"/>
      <point x="29.5382932227" y="486.300948127" type="line" smooth="yes"/>
      <point x="21.3498176579" y="522.283477321"/>
      <point x="7.91069727688" y="527.439371607"/>
      <point x="-27.2893027231" y="509.639992731" type="curve" smooth="yes"/>
      <point x="-36.0893027231" y="505.190148012"/>
      <point x="-49.1150798388" y="497.749795206"/>
      <point x="-61.0408569544" y="490.86567299" type="curve"/>
    </contour>
  </outline>
</glyph>
<glyph name="m" format="1">
  <advance width="778"/>
  <unicode hex="006D"/>
  <outline>
    <contour>
      <point x="90.2407079741" y="363.756126806" type="curve"/>
      <point x="93.2024970082" y="379.056126806" type="line"/>
      <point x="156.315840274" y="408.639651769"/>
      <point x="195.632292001" y="428.482194474"/>
      <point x="255.042526804" y="460.496008531" type="curve"/>
      <point x="262.394081036" y="460.743002617" type="line"/>
      <point x="249.327364709" y="393.243002617" type="line"/>
      <point x="351.603406423" y="474.214503926"/>
      <point x="384.842526804" y="495.002480271"/>
      <point x="433.242526804" y="507.869300242" type="curve" smooth="yes"/>
      <point x="492.642526804" y="523.660397479"/>
      <point x="525.338508927" y="509.302940183"/>
      <point x="535.207804518" y="463.266639262" type="curve"/>
      <point x="604.712731811" y="531.257736499"/>
      <point x="665.342526804" y="569.571550556"/>
      <point x="729.142526804" y="586.5323587" type="curve" smooth="yes"/>
      <point x="813.842526804" y="609.049293649"/>
      <point x="846.289153743" y="566.453974986"/>
      <point x="825.730853389" y="460.253974986" type="curve" smooth="yes"/>
      <point x="789.840939211" y="274.853974986" type="line" smooth="yes"/>
      <point x="783.046246721" y="239.753974986"/>
      <point x="794.210234803" y="227.355535432"/>
      <point x="826.861789034" y="234.328367231" type="curve" smooth="yes"/>
      <point x="855.113343265" y="240.131488122" type="line"/>
      <point x="852.5" y="226.631488122" type="line"/>
      <point x="611.6" y="162.589815995" type="line"/>
      <point x="614.213343265" y="176.089815995" type="line"/>
      <point x="679.232903456" y="199.350624138"/>
      <point x="689.426686531" y="208.890045951"/>
      <point x="699.357390939" y="260.190045951" type="curve" smooth="yes"/>
      <point x="736.118419538" y="450.090045951" type="line" smooth="yes"/>
      <point x="750.57891894" y="524.790045951"/>
      <point x="735.482936818" y="543.826346872"/>
      <point x="672.782936818" y="527.157966455" type="curve" smooth="yes"/>
      <point x="622.182936818" y="513.706291031"/>
      <point x="582.746924899" y="487.856176053"/>
      <point x="542.255340872" y="440.383344255" type="curve"/>
      <point x="498.351174014" y="213.583344255" type="line" smooth="yes"/>
      <point x="487.549355184" y="157.783344255"/>
      <point x="501.08756615" y="146.869760154"/>
      <point x="563.613343265" y="162.638140571" type="curve"/>
      <point x="561.0" y="149.138140571" type="line"/>
      <point x="314.6" y="83.6343298104" type="line"/>
      <point x="317.213343265" y="97.1343298104" type="line"/>
      <point x="380.610234803" y="117.402710227"/>
      <point x="394.626686531" y="130.51941522"/>
      <point x="404.383168055" y="180.91941522" type="curve" smooth="yes"/>
      <point x="442.18953396" y="376.21941522" type="line" smooth="yes"/>
      <point x="454.385135865" y="439.21941522"/>
      <point x="436.282936818" y="464.286005234"/>
      <point x="387.882936818" y="451.419185264" type="curve" smooth="yes"/>
      <point x="349.382936818" y="441.184214832"/>
      <point x="299.121147784" y="413.309822588"/>
      <point x="267.614021443" y="385.299129423" type="curve" smooth="yes"/>
      <point x="258.694461253" y="376.952135337"/>
      <point x="248.152232409" y="365.612713524"/>
      <point x="247.803786641" y="363.812713524" type="curve" smooth="yes"/>
      <point x="198.672933252" y="110.012713524" type="line" smooth="yes"/>
      <point x="191.878240762" y="74.9127135236"/>
      <point x="206.461789034" y="69.3991294228"/>
      <point x="264.413343265" y="83.0977989331" type="curve"/>
      <point x="261.8" y="69.5977989331" type="line"/>
      <point x="17.6" y="4.67884362575" type="line"/>
      <point x="20.2133432654" y="18.1788436258" type="line"/>
      <point x="81.9875661497" y="35.4547963159"/>
      <point x="100.000909415" y="53.0487844884"/>
      <point x="109.40894517" y="101.648784488" type="curve" smooth="yes"/>
      <point x="153.487334913" y="329.348784488" type="line" smooth="yes"/>
      <point x="161.850033362" y="372.548784488"/>
      <point x="154.737599512" y="384.316934949"/>
      <point x="126.137599512" y="376.713814057" type="curve" smooth="yes"/>
      <point x="114.037599512" y="373.497109064"/>
      <point x="105.063376627" y="370.257687252"/>
    </contour>
  </outline>
</glyph>
<glyph name="n" format="1">
  <advance width="500"/>
  <unicode hex="006E"/>
  <outline>
    <contour>
      <point x="-31.7407079741" y="313.60280899" type="curve"/>
      <point x="-34.7024970082" y="326.617766357" type="line"/>
      <point x="23.0099368421" y="369.459820441"/>
      <point x="58.4934851142" y="396.793103499"/>
      <point x="109.257473196" y="437.828945498" type="curve"/>
      <point x="117.305918964" y="440.191388173" type="line"/>
      <point x="131.069526829" y="379.710115699" type="line"/>
      <point x="194.71926223" y="466.531282371"/>
      <point x="225.857473196" y="496.789388025"/>
      <point x="276.457473196" y="522.375995159" type="curve" smooth="yes"/>
      <point x="357.857473196" y="563.53705881"/>
      <point x="416.01395472" y="545.138404024"/>
      <point x="432.390905849" y="473.173345637" type="curve" smooth="yes"/>
      <point x="472.287946367" y="297.854214036" type="line" smooth="yes"/>
      <point x="480.824867701" y="260.340513387"/>
      <point x="496.115542313" y="257.828251736"/>
      <point x="550.886656735" y="281.255622002" type="curve"/>
      <point x="553.5" y="269.771836089" type="line"/>
      <point x="324.7" y="154.075873395" type="line"/>
      <point x="322.086656735" y="165.559659308" type="line"/>
      <point x="376.389765197" y="196.433531712"/>
      <point x="387.727976163" y="216.679486748"/>
      <point x="376.751934449" y="264.911387582" type="curve" smooth="yes"/>
      <point x="340.339351618" y="424.918804633" type="line" smooth="yes"/>
      <point x="328.84064125" y="475.447462649"/>
      <point x="297.039731835" y="485.831086045"/>
      <point x="243.139731835" y="458.575787141" type="curve" smooth="yes"/>
      <point x="206.839731835" y="440.220177675"/>
      <point x="184.730406448" y="418.796075968"/>
      <point x="139.770436244" y="357.645649915" type="curve"/>
      <point x="188.727066748" y="142.516060483" type="line" smooth="yes"/>
      <point x="194.999090585" y="114.954974293"/>
      <point x="213.589765197" y="114.11140441"/>
      <point x="270.386656735" y="139.416821584" type="curve"/>
      <point x="273.0" y="127.933035671" type="line"/>
      <point x="39.8" y="10.0121506177" type="line"/>
      <point x="37.1866567346" y="21.4959365305" type="line"/>
      <point x="92.5897651972" y="52.9260395242"/>
      <point x="102.250644816" y="69.762776198"/>
      <point x="92.3199404079" y="113.401162667" type="curve" smooth="yes"/>
      <point x="49.1126650873" y="303.266423091" type="line" smooth="yes"/>
      <point x="40.5757437538" y="340.780123739"/>
      <point x="28.0624004885" y="347.257834343"/>
      <point x="-2.73759951151" y="331.683377826" type="curve" smooth="yes"/>
      <point x="-14.8375995115" y="325.564841338"/>
      <point x="-25.6633766272" y="319.236949711"/>
    </contour>
  </outline>
</glyph>
<glyph name="o" format="1">
  <advance width="500"/>
  <unicode hex="006F"/>
  <outline>
    <contour>
      <point x="355.142526804" y="487.106931652" type="curve" smooth="yes"/>
      <point x="495.942526804" y="524.537680658"/>
      <point x="580.59135279" y="465.941031507"/>
      <point x="557.76815494" y="348.041031507" type="curve" smooth="yes"/>
      <point x="533.725396898" y="223.841031507"/>
      <point x="409.657771156" y="100.367969752"/>
      <point x="271.057771156" y="63.5220761992" type="curve" smooth="yes"/>
      <point x="132.457771156" y="26.6761826464"/>
      <point x="47.7542824765" y="90.3804040717"/>
      <point x="71.2743718647" y="211.880404072" type="curve" smooth="yes"/>
      <point x="95.3171299059" y="336.080404072"/>
      <point x="212.142526804" y="449.091327193"/>
    </contour>
    <contour>
      <point x="335.964286042" y="458.105371206" type="curve" smooth="yes"/>
      <point x="257.864286042" y="437.343002617"/>
      <point x="195.362467212" y="367.798899467"/>
      <point x="178.811293198" y="282.298899467" type="curve" smooth="yes"/>
      <point x="166.441468409" y="218.398899467"/>
      <point x="171.845866504" y="160.077743092"/>
      <point x="193.586276517" y="121.465719437" type="curve" smooth="yes"/>
      <point x="209.717361143" y="91.6067016962"/>
      <point x="246.236011918" y="80.8265275807"/>
      <point x="289.136011918" y="92.2312089185" type="curve" smooth="yes"/>
      <point x="371.636011918" y="114.163288414"/>
      <point x="432.983168055" y="188.522536112"/>
      <point x="452.670353987" y="290.222536112" type="curve" smooth="yes"/>
      <point x="476.538889144" y="413.522536112"/>
      <point x="428.364286042" y="482.669300242"/>
    </contour>
  </outline>
</glyph>
<glyph name="p" format="1">
  <advance width="500"/>
  <unicode hex="0070"/>
  <outline>
    <contour>
      <point x="-38.5695935523" y="305.881266223" type="curve"/>
      <point x="-41.357159702" y="318.130637863" type="line"/>
      <point x="16.1810512639" y="361.738277674"/>
      <point x="52.4161537673" y="391.158962778"/>
      <point x="108.157473196" y="437.272714909" type="curve"/>
      <point x="115.105918964" y="439.078926993" type="line"/>
      <point x="128.52108106" y="380.128825974" type="line"/>
      <point x="167.513045305" y="445.944601214"/>
      <point x="211.557473196" y="489.558390357"/>
      <point x="273.157473196" y="520.70730339" type="curve" smooth="yes"/>
      <point x="379.857473196" y="574.661670608"/>
      <point x="472.363309904" y="545.46068215"/>
      <point x="493.966947564" y="450.528051938" type="curve" smooth="yes"/>
      <point x="519.229265796" y="339.518121448"/>
      <point x="437.542228844" y="202.599305698"/>
      <point x="307.742228844" y="136.964096092" type="curve" smooth="yes"/>
      <point x="261.542228844" y="113.602411318"/>
      <point x="233.4" y="107.908734436"/>
      <point x="189.150644816" y="113.704992798" type="curve"/>
      <point x="216.50363766" y="-6.49196642198" type="line" smooth="yes"/>
      <point x="227.479679375" y="-54.7238672555"/>
      <point x="243.696131103" y="-55.9143125898"/>
      <point x="326.370353987" y="-14.9626040767" type="curve"/>
      <point x="329.506365905" y="-28.7431471721" type="line"/>
      <point x="63.3063659055" y="-163.350949922" type="line"/>
      <point x="60.3445768714" y="-150.335992554" type="line"/>
      <point x="124.199239565" y="-112.924873386"/>
      <point x="134.382787837" y="-98.384893895"/>
      <point x="125.323197851" y="-58.5744360641" type="curve" smooth="yes"/>
      <point x="43.7868879717" y="299.719684414" type="line" smooth="yes"/>
      <point x="35.5984124069" y="335.702213607"/>
      <point x="26.1561835633" y="339.464456753"/>
      <point x="-11.2438164367" y="320.552616697" type="curve" smooth="yes"/>
      <point x="-21.1438164367" y="315.546541389"/>
      <point x="-28.8438164367" y="311.652927259"/>
    </contour>
    <contour>
      <point x="136.709556625" y="344.146296781" type="curve" smooth="yes"/>
      <point x="179.568386177" y="155.812207812" type="line" smooth="yes"/>
      <point x="184.795072707" y="132.844635986"/>
      <point x="253.767096544" y="136.988693418"/>
      <point x="305.467096544" y="163.131531142" type="curve" smooth="yes"/>
      <point x="384.667096544" y="203.180133613"/>
      <point x="425.500380217" y="287.854362081"/>
      <point x="406.161640054" y="372.834377835" type="curve" smooth="yes"/>
      <point x="385.951785468" y="461.642322227"/>
      <point x="318.810846257" y="492.571538615"/>
      <point x="237.410846257" y="451.410474964" type="curve" smooth="yes"/>
      <point x="186.810846257" y="425.82386783"/>
      <point x="131.482870094" y="367.113868606"/>
    </contour>
  </outline>
</glyph>
<glyph name="q" format="1">
  <advance width="500"/>
  <unicode hex="0071"/>
  <outline>
    <contour>
      <point x="470.044725852" y="487.773981579" type="curve"/>
      <point x="535.019858151" y="532.365078816" type="line"/>
      <point x="547.119858151" y="535.581783809" type="line"/>
      <point x="442.934573306" y="-2.61821619091" type="line" smooth="yes"/>
      <point x="435.617212163" y="-40.4182161909"/>
      <point x="443.023429088" y="-45.278794378"/>
      <point x="501.432754476" y="-39.9952694145" type="curve"/>
      <point x="498.993634095" y="-52.5952694145" type="line"/>
      <point x="239.393634095" y="-121.608212894" type="line"/>
      <point x="242.355423129" y="-106.308212894" type="line"/>
      <point x="321.32653755" y="-81.0458443051"/>
      <point x="343.739880816" y="-62.2821452261"/>
      <point x="353.49636234" y="-11.8821452261" type="curve" smooth="yes"/>
      <point x="386.250264599" y="157.317854774" type="line"/>
      <point x="329.48756615" y="101.251034803"/>
      <point x="264.457771156" y="61.7675098395"/>
      <point x="200.657771156" y="44.8067016962" type="curve" smooth="yes"/>
      <point x="97.2577711564" y="17.3184953949"/>
      <point x="40.1636078642" y="78.1182654386"/>
      <point x="62.1156912932" y="191.518265439" type="curve" smooth="yes"/>
      <point x="87.2037866406" y="321.118265439"/>
      <point x="212.316749689" y="449.991327193"/>
      <point x="349.816749689" y="486.544793019" type="curve" smooth="yes"/>
      <point x="392.716749689" y="497.949474357"/>
      <point x="424.148743729" y="498.622306155"/>
    </contour>
    <contour>
      <point x="397.226306313" y="214.017854774" type="curve" smooth="yes"/>
      <point x="433.116220491" y="399.417854774" type="line" smooth="yes"/>
      <point x="444.789153743" y="459.717854774"/>
      <point x="416.438508927" y="480.352595249"/>
      <point x="348.238508927" y="462.222076199" type="curve" smooth="yes"/>
      <point x="254.738508927" y="437.365719437"/>
      <point x="183.546015484" y="355.267049927"/>
      <point x="162.98771513" y="249.067049927" type="curve" smooth="yes"/>
      <point x="151.489004762" y="189.667049927"/>
      <point x="163.264517279" y="137.308032186"/>
      <point x="193.412053633" y="120.565719437" type="curve"/>
      <point x="211.927595946" y="108.41427397"/>
      <point x="239.885367102" y="107.309822588"/>
      <point x="273.985367102" y="116.375082113" type="curve" smooth="yes"/>
      <point x="308.085367102" y="125.440341638"/>
      <point x="346.476041714" y="145.890456616"/>
      <point x="373.986276517" y="169.423866601" type="curve" smooth="yes"/>
      <point x="386.380059592" y="179.548143867"/>
      <point x="393.044957089" y="192.417854774"/>
    </contour>
  </outline>
</glyph>
<glyph name="r" format="1">
  <advance width="333"/>
  <unicode hex="0072"/>
  <outline>
    <contour>
      <point x="-40.2469248992" y="302.472047861" type="curve"/>
      <point x="-43.0344910489" y="314.721419501" type="line"/>
      <point x="18.5552741483" y="362.085153126"/>
      <point x="55.8903766516" y="392.06206882"/>
      <point x="110.357473196" y="438.385176088" type="curve"/>
      <point x="116.205918964" y="439.635157583" type="line"/>
      <point x="132.234424325" y="369.201270651" type="line"/>
      <point x="173.764599536" y="450.813156209"/>
      <point x="201.657473196" y="484.552315048"/>
      <point x="247.857473196" y="507.913999823" type="curve" smooth="yes"/>
      <point x="285.257473196" y="526.825839878"/>
      <point x="311.841930883" y="523.194967716"/>
      <point x="317.591286067" y="497.930638707" type="curve" smooth="yes"/>
      <point x="322.469526829" y="476.494238337"/>
      <point x="308.931315863" y="455.135822121"/>
      <point x="282.531315863" y="441.786287964" type="curve" smooth="yes"/>
      <point x="268.231315863" y="434.555290296"/>
      <point x="255.085978557" y="433.030268172"/>
      <point x="235.046858176" y="434.848778919" type="curve" smooth="yes"/>
      <point x="221.204629332" y="436.386099706"/>
      <point x="210.43351491" y="435.207953035"/>
      <point x="203.83351491" y="431.870569495" type="curve" smooth="yes"/>
      <point x="174.13351491" y="416.852343569"/>
      <point x="135.544659128" y="354.655141828"/>
      <point x="141.119791428" y="330.156398548" type="curve" smooth="yes"/>
      <point x="180.319940408" y="157.899609857" type="line" smooth="yes"/>
      <point x="190.250644816" y="114.261223388"/>
      <point x="211.563988082" y="112.233357503"/>
      <point x="286.886656735" y="147.760280432" type="curve"/>
      <point x="289.5" y="136.276494519" type="line"/>
      <point x="25.5" y="2.78115294937" type="line"/>
      <point x="22.8866567346" y="14.2649388621" type="line"/>
      <point x="91.1959821224" y="59.0507253443"/>
      <point x="97.6764219319" y="68.3034395661"/>
      <point x="88.965277714" y="106.582725942" type="curve" smooth="yes"/>
      <point x="45.4095566248" y="297.979157821" type="line" smooth="yes"/>
      <point x="37.7437497131" y="331.664929832"/>
      <point x="25.0561835633" y="338.908226163"/>
      <point x="-2.44381643665" y="325.002461416" type="curve" smooth="yes"/>
      <point x="-15.6438164367" y="318.327694338"/>
      <point x="-25.3695935523" y="312.556033301"/>
    </contour>
  </outline>
</glyph>
<glyph name="s" format="1">
  <advance width="389"/>
  <unicode hex="0073"/>
  <outline>
    <contour>
      <point x="401.205985688" y="374.714733882" type="line"/>
      <point x="384.705985688" y="370.328317983" type="line"/>
      <point x="374.911822396" y="443.702480271"/>
      <point x="347.835400464" y="465.529648473"/>
      <point x="285.135400464" y="448.861268056" type="curve" smooth="yes"/>
      <point x="234.535400464" y="435.409592632"/>
      <point x="195.557159702" y="401.144333107"/>
      <point x="188.588244328" y="365.144333107" type="curve" smooth="yes"/>
      <point x="183.88422645" y="340.844333107"/>
      <point x="196.028654341" y="322.730749006"/>
      <point x="224.041088191" y="316.518725351" type="curve" smooth="yes"/>
      <point x="331.690823593" y="290.500919825" type="line" smooth="yes"/>
      <point x="391.418799756" y="275.646583422"/>
      <point x="412.069444572" y="252.96484886"/>
      <point x="403.358300354" y="207.96484886" type="curve" smooth="yes"/>
      <point x="391.162698449" y="144.96484886"/>
      <point x="310.657771156" y="74.0494743571"/>
      <point x="225.957771156" y="51.5325394082" type="curve" smooth="yes"/>
      <point x="206.157771156" y="46.2688403292"/>
      <point x="177.154662694" y="41.9732917108"/>
      <point x="147.4" y="39.1853153657" type="curve"/>
      <point x="123.145337306" y="37.8594776537"/>
      <point x="108.093783075" y="35.5654894811"/>
      <point x="98.1937830749" y="32.9336399416" type="curve" smooth="yes"/>
      <point x="84.9937830749" y="29.4245072223"/>
      <point x="80.2453373061" y="26.4547963159"/>
      <point x="70.8031084626" y="15.4078022296" type="curve"/>
      <point x="56.5031084626" y="11.6062417837" type="line"/>
      <point x="83.6818784223" y="152.006241784" type="line"/>
      <point x="101.281878422" y="156.685085409" type="line"/>
      <point x="105.651174014" y="109.186645855"/>
      <point x="111.544047674" y="91.1184953949"/>
      <point x="130.288475565" y="74.7594776537" type="curve" smooth="yes"/>
      <point x="147.355572109" y="60.5156044593"/>
      <point x="179.190674612" y="57.8808639841"/>
      <point x="216.590674612" y="67.8234066889" type="curve" smooth="yes"/>
      <point x="272.690674612" y="82.737220746"/>
      <point x="312.768915374" y="117.294907997"/>
      <point x="320.434722286" y="156.894907997" type="curve" smooth="yes"/>
      <point x="325.835631701" y="184.794907997"/>
      <point x="311.316980926" y="201.423636645"/>
      <point x="276.301438613" y="209.188666214" type="curve" smooth="yes"/>
      <point x="218.250793797" y="221.92785807" type="line" smooth="yes"/>
      <point x="133.113492246" y="240.271501309"/>
      <point x="104.88240762" y="266.913814057"/>
      <point x="114.638889144" y="317.313814057" type="curve" smooth="yes"/>
      <point x="127.182936818" y="382.113814057"/>
      <point x="198.76830392" y="444.682194474"/>
      <point x="285.66830392" y="467.783984876" type="curve" smooth="yes"/>
      <point x="314.26830392" y="475.387105768"/>
      <point x="337.771412382" y="478.220515753"/>
      <point x="360.577629308" y="477.453925739" type="curve" smooth="yes"/>
      <point x="371.806514886" y="476.170630731"/>
      <point x="382.458069117" y="477.294907997"/>
      <point x="389.058069117" y="479.049474357" type="curve" smooth="yes"/>
      <point x="393.458069117" y="480.219185264"/>
      <point x="394.732292001" y="481.41161299"/>
      <point x="405.851852192" y="490.34346253" type="curve"/>
      <point x="408.400297961" y="492.728317983" type="line"/>
      <point x="420.500297961" y="495.945022976" type="line"/>
    </contour>
  </outline>
</glyph>
<glyph name="t" format="1">
  <advance width="278"/>
  <unicode hex="0074"/>
  <outline>
    <contour>
      <point x="222.099702039" y="486.352377801" type="line"/>
      <point x="227.674834339" y="461.85363452" type="line"/>
      <point x="116.574834339" y="405.674344943" type="line"/>
      <point x="166.402579265" y="186.716826873" type="line" smooth="yes"/>
      <point x="177.378620979" y="138.484926039"/>
      <point x="198.582638857" y="126.157570245"/>
      <point x="239.282638857" y="146.73810207" type="curve" smooth="yes"/>
      <point x="263.482638857" y="158.975175047"/>
      <point x="280.440410013" y="176.08695235"/>
      <point x="299.184837905" y="206.907437926" type="curve"/>
      <point x="315.401289632" y="205.716992591" type="line"/>
      <point x="288.160879619" y="147.550925294"/>
      <point x="250.542228844" y="108.040105419"/>
      <point x="196.642228844" y="80.7848065149" type="curve" smooth="yes"/>
      <point x="131.742228844" y="47.9672017123"/>
      <point x="91.2506448162" y="64.2004702993"/>
      <point x="76.6159225302" y="128.509671411" type="curve" smooth="yes"/>
      <point x="24.1748343388" y="358.950975393" type="line"/>
      <point x="-34.1251656612" y="329.47075413" type="line"/>
      <point x="-37.7736114299" y="329.333233815"/>
      <point x="-39.2220571986" y="330.30817468"/>
      <point x="-39.7447258517" y="332.604931863" type="curve" smooth="yes"/>
      <point x="-40.6158402735" y="336.432860501"/>
      <point x="-35.235400464" y="345.129344132"/>
      <point x="-24.3549606545" y="356.606980714" type="curve"/>
      <point x="-7.45185219193" y="368.569013062"/>
      <point x="31.4854493589" y="429.235043347"/>
      <point x="63.7031907193" y="492.479020776" type="curve" smooth="yes"/>
      <point x="69.6609618757" y="504.02849218"/>
      <point x="74.6929559165" y="514.256147267"/>
      <point x="80.8249499573" y="525.040032944" type="curve"/>
      <point x="87.4249499573" y="528.377416483"/>
      <point x="89.0476186104" y="526.63688989"/>
      <point x="90.7898474539" y="518.981032615" type="curve" smooth="yes"/>
      <point x="110.999702039" y="430.173088223" type="line"/>
    </contour>
  </outline>
</glyph>
<glyph name="u" format="1">
  <advance width="500"/>
  <unicode hex="0075"/>
  <outline>
    <contour>
      <point x="535.611144218" y="185.072881046" type="line"/>
      <point x="533.172023837" y="172.472881046" type="line"/>
      <point x="474.632903456" y="144.959066989"/>
      <point x="433.116451728" y="124.531668831"/>
      <point x="374.631994041" y="91.9102825005" type="curve"/>
      <point x="370.58043981" y="92.5405715941" type="line"/>
      <point x="385.040939211" y="167.240571594" type="line"/>
      <point x="330.249355184" y="115.96617935" type="line" smooth="yes"/>
      <point x="295.845337306" y="83.7706307314"/>
      <point x="250.157771156" y="57.9659493936"/>
      <point x="209.457771156" y="47.146123509" type="curve" smooth="yes"/>
      <point x="129.157771156" y="25.7988994665"/>
      <point x="85.2431382586" y="57.6623685893"/>
      <point x="99.0067461228" y="128.762368589" type="curve" smooth="yes"/>
      <point x="142.910912981" y="355.562368589" type="line" smooth="yes"/>
      <point x="150.925165661" y="396.962368589"/>
      <point x="138.138508927" y="406.368380417"/>
      <point x="85.8611775796" y="395.031849539" type="curve"/>
      <point x="88.3002979606" y="407.631849539" type="line"/>
      <point x="248.900297961" y="450.326297624" type="line"/>
      <point x="192.10363766" y="156.926297624" type="line" smooth="yes"/>
      <point x="184.786276517" y="119.126297624"/>
      <point x="214.062698449" y="97.883984876"/>
      <point x="256.962698449" y="109.288666214" type="curve" smooth="yes"/>
      <point x="289.962698449" y="118.061498012"/>
      <point x="326.153373061" y="137.926757537"/>
      <point x="359.686276517" y="165.622306155" type="curve" smooth="yes"/>
      <point x="377.002728245" y="179.616294328"/>
      <point x="384.941848626" y="193.678432961"/>
      <point x="389.820089388" y="218.878432961" type="curve" smooth="yes"/>
      <point x="430.762467212" y="430.378432961" type="line" smooth="yes"/>
      <point x="439.47361143" y="475.378432961"/>
      <point x="428.015840274" y="480.869300242"/>
      <point x="360.338508927" y="465.438781192" type="curve"/>
      <point x="363.300297961" y="480.738781192" type="line"/>
      <point x="537.100297961" y="526.942361996" type="line"/>
      <point x="477.341848626" y="218.242361996" type="line" smooth="yes"/>
      <point x="469.327595946" y="176.842361996"/>
      <point x="479.511144218" y="170.159066989"/>
      <point x="530.111144218" y="183.610742413" type="curve" smooth="yes"/>
    </contour>
  </outline>
</glyph>
<glyph name="v" format="1">
  <advance width="500"/>
  <unicode hex="0076"/>
  <outline>
    <contour>
      <point x="466.299702039" y="609.835568753" type="line"/>
      <point x="468.913045305" y="598.35178284" type="line"/>
      <point x="436.435713958" y="579.368107961"/>
      <point x="431.055274148" y="570.671624329"/>
      <point x="411.002430285" y="502.481107752" type="curve"/>
      <point x="326.127976163" y="185.530573715" type="line" smooth="yes"/>
      <point x="316.074222884" y="148.860442949"/>
      <point x="310.639120381" y="135.014214362"/>
      <point x="304.039120381" y="131.676830823" type="curve" smooth="yes"/>
      <point x="297.439120381" y="128.339447283"/>
      <point x="289.445337306" y="131.126749564"/>
      <point x="279.709325388" y="141.56990912" type="curve" smooth="yes"/>
      <point x="275.015542313" y="146.025903171"/>
      <point x="270.495982122" y="149.716311494"/>
      <point x="267.250644816" y="153.197364679" type="curve" smooth="yes"/>
      <point x="85.2486770058" y="306.172797692" type="line"/>
      <point x="16.703719917" y="359.441520492"/>
      <point x="7.26149107342" y="363.203763638"/>
      <point x="-34.8869546953" y="343.598172677" type="curve"/>
      <point x="-37.5002979606" y="355.08195859" type="line"/>
      <point x="178.099702039" y="464.103154206" type="line"/>
      <point x="180.713045305" y="452.619368293" type="line"/>
      <point x="142.735713958" y="430.854540465"/>
      <point x="131.855274148" y="419.376903884"/>
      <point x="134.991286067" y="405.596360788" type="curve" smooth="yes"/>
      <point x="136.559292026" y="398.706089241"/>
      <point x="142.298412407" y="389.656580825"/>
      <point x="151.337532788" y="382.275764179" type="curve" smooth="yes"/>
      <point x="308.138591183" y="243.021338102" type="line"/>
      <point x="371.914864135" y="496.374869926" type="line" smooth="yes"/>
      <point x="374.572635291" y="506.255649561"/>
      <point x="375.030406448" y="515.023968016"/>
      <point x="373.288177604" y="522.679825291" type="curve" smooth="yes"/>
      <point x="369.977942801" y="537.225954114"/>
      <point x="351.735713958" y="536.538352541"/>
      <point x="316.013045305" y="521.035730848" type="curve"/>
      <point x="313.399702039" y="532.51951676" type="line"/>
    </contour>
  </outline>
</glyph>
<glyph name="w" format="1">
  <advance width="722"/>
  <unicode hex="0077"/>
  <outline>
    <contour>
      <point x="706.500297961" y="571.976231894" type="line"/>
      <point x="841.800297961" y="607.944842267" type="line"/>
      <point x="839.186954695" y="594.444842267" type="line"/>
      <point x="815.967394505" y="582.296287735"/>
      <point x="811.796280083" y="576.919004555"/>
      <point x="784.67891894" y="533.855305476" type="curve"/>
      <point x="572.597800952" y="182.100279204" type="line" smooth="yes"/>
      <point x="548.028885578" y="141.421435578"/>
      <point x="540.960879619" y="131.859296945"/>
      <point x="533.260879619" y="129.812302859" type="curve" smooth="yes"/>
      <point x="526.660879619" y="128.057736499"/>
      <point x="523.306216925" y="132.288025593"/>
      <point x="514.352463646" y="161.49403742" type="curve" smooth="yes"/>
      <point x="455.369064355" y="347.283114299" type="line"/>
      <point x="290.355572109" y="98.5312089185" type="line" smooth="yes"/>
      <point x="272.625777116" y="71.6220761992"/>
      <point x="261.560879619" y="57.5826543863"/>
      <point x="256.060879619" y="56.1205157533" type="curve" smooth="yes"/>
      <point x="249.460879619" y="54.3659493936"/>
      <point x="243.1" y="64.6265275807"/>
      <point x="235.126686531" y="88.1173948614" type="curve" smooth="yes"/>
      <point x="146.210912981" y="356.439651769" type="line"/>
      <point x="130.896280083" y="395.906241784"/>
      <point x="123.838508927" y="402.566819971"/>
      <point x="98.8869546953" y="397.640982259" type="curve"/>
      <point x="101.500297961" y="411.140982259" type="line"/>
      <point x="299.500297961" y="463.777973049" type="line"/>
      <point x="296.886954695" y="450.277973049" type="line"/>
      <point x="258.790063158" y="436.735430344"/>
      <point x="244.196280083" y="426.026297624"/>
      <point x="240.537599512" y="407.126297624" type="curve" smooth="yes"/>
      <point x="238.795370668" y="398.126297624"/>
      <point x="239.253141824" y="389.711153078"/>
      <point x="241.910912981" y="381.880863984" type="curve" smooth="yes"/>
      <point x="305.338740164" y="175.931208919" type="line"/>
      <point x="440.109094151" y="381.64213204" type="line"/>
      <point x="436.645106069" y="396.08756568"/>
      <point x="432.255340872" y="411.140571594"/>
      <point x="427.865575675" y="426.193577508" type="curve" smooth="yes"/>
      <point x="415.27361143" y="468.945022976"/>
      <point x="403.990063158" y="475.335890256"/>
      <point x="363.986954695" y="468.116064372" type="curve"/>
      <point x="366.600297961" y="481.616064372" type="line"/>
      <point x="589.900297961" y="540.978892873" type="line"/>
      <point x="587.286954695" y="527.478892873" type="line"/>
      <point x="534.367394505" y="507.434789723"/>
      <point x="521.047834314" y="497.91808473"/>
      <point x="517.214930858" y="478.11808473" type="curve" smooth="yes"/>
      <point x="514.950033362" y="466.41808473"/>
      <point x="514.950033362" y="466.41808473"/>
      <point x="525.635780681" y="429.989356082" type="curve" smooth="yes"/>
      <point x="579.009854585" y="252.953285118" type="line"/>
      <point x="716.687334913" y="479.071780513" type="line" smooth="yes"/>
      <point x="733.49135279" y="506.588485505"/>
      <point x="744.272702015" y="529.943051865"/>
      <point x="746.88604528" y="543.443051865" type="curve" smooth="yes"/>
      <point x="749.847834314" y="558.743051865"/>
      <point x="740.067394505" y="562.118774599"/>
      <point x="703.886954695" y="558.476231894" type="curve"/>
    </contour>
  </outline>
</glyph>
<glyph name="x" format="1">
  <advance width="500"/>
  <unicode hex="0078"/>
  <outline>
    <contour>
      <point x="325.8" y="154.632103985" type="line"/>
      <point x="323.186656735" y="166.115889898" type="line"/>
      <point x="359.138210966" y="186.002670819"/>
      <point x="366.141319429" y="192.958627858"/>
      <point x="363.00530751" y="206.739170953" type="curve" smooth="yes"/>
      <point x="361.959970204" y="211.332685318"/>
      <point x="358.714632898" y="214.813738504"/>
      <point x="353.269295592" y="217.182330509" type="curve" smooth="yes"/>
      <point x="228.778091782" y="273.747348683" type="line"/>
      <point x="163.307506558" y="135.638087598" type="line" smooth="yes"/>
      <point x="152.491964245" y="113.09537538"/>
      <point x="147.40530751" y="97.7179753379"/>
      <point x="148.450644816" y="93.1244609728" type="curve" smooth="yes"/>
      <point x="150.715542313" y="83.1718465151"/>
      <point x="164.786656735" y="86.018684956"/>
      <point x="195.586656735" y="101.593141472" type="curve"/>
      <point x="198.2" y="90.1093555597" type="line"/>
      <point x="38.7" y="9.45592002787" type="line"/>
      <point x="36.0866567346" y="20.9397059406" type="line"/>
      <point x="71.8639880816" y="41.592072589"/>
      <point x="81.6444278911" y="52.5134785804"/>
      <point x="107.501289632" y="100.589411105" type="curve"/>
      <point x="204.154513714" y="290.321343391" type="line"/>
      <point x="75.6664183661" y="348.280012705" type="line" smooth="yes"/>
      <point x="33.3779428014" y="367.019393612"/>
      <point x="13.5130453047" y="368.072318632"/>
      <point x="-19.4869546953" y="351.385400936" type="curve" smooth="yes"/>
      <point x="-29.3869546953" y="346.379325627" type="line"/>
      <point x="-32.0002979606" y="357.86311154" type="line"/>
      <point x="195.699702039" y="473.002843644" type="line"/>
      <point x="198.313045305" y="461.519057731" type="line"/>
      <point x="165.487268189" y="444.066554307"/>
      <point x="152.40682838" y="431.476456546"/>
      <point x="154.845948761" y="420.758256361" type="curve" smooth="yes"/>
      <point x="157.110846257" y="410.805641903"/>
      <point x="182.834424325" y="394.787877785"/>
      <point x="220.951785468" y="378.207733746" type="curve"/>
      <point x="239.836243155" y="370.683247454" type="line"/>
      <point x="250.651785468" y="393.225959673"/>
      <point x="260.71577355" y="413.681269847"/>
      <point x="265.170436244" y="421.055937161" type="curve" smooth="yes"/>
      <point x="287.269526829" y="458.694859461"/>
      <point x="296.636623373" y="482.212512545"/>
      <point x="294.545948761" y="491.399541275" type="curve" smooth="yes"/>
      <point x="292.10682838" y="502.11774146"/>
      <point x="280.061491073" y="501.148949927"/>
      <point x="246.713045305" y="485.993203685" type="curve"/>
      <point x="244.099702039" y="497.476989598" type="line"/>
      <point x="417.899702039" y="585.361422798" type="line"/>
      <point x="420.513045305" y="573.877636886" type="line"/>
      <point x="385.487268189" y="555.312672282"/>
      <point x="355.274834339" y="526.376382946"/>
      <point x="339.078852216" y="495.137187095" type="curve" smooth="yes"/>
      <point x="268.685598339" y="357.099760833" type="line"/>
      <point x="443.633283673" y="278.242473744" type="line"/>
      <point x="485.399090585" y="261.799850019"/>
      <point x="510.186656735" y="260.675090177"/>
      <point x="544.286656735" y="277.918238463" type="curve"/>
      <point x="546.9" y="266.43445255" type="line"/>
    </contour>
  </outline>
</glyph>
<glyph name="y" format="1">
  <advance width="500"/>
  <unicode hex="0079"/>
  <outline>
    <contour>
      <point x="600.900297961" y="543.90317014" type="line"/>
      <point x="598.286954695" y="530.40317014" type="line"/>
      <point x="571.364286042" y="520.684904701"/>
      <point x="557.522057199" y="508.468199708"/>
      <point x="537.646924899" y="475.866639262" type="curve" smooth="yes"/>
      <point x="297.163988082" y="63.6327693644" type="line" smooth="yes"/>
      <point x="212.675892734" y="-81.7583278725"/>
      <point x="150.11941121" y="-146.19485875"/>
      <point x="76.4194112102" y="-165.787516433" type="curve" smooth="yes"/>
      <point x="30.2194112102" y="-178.06948095"/>
      <point x="-0.625016680899" y="-164.927168202"/>
      <point x="5.12433850288" y="-135.227168202" type="curve" smooth="yes"/>
      <point x="9.30568772745" y="-113.627168202"/>
      <point x="34.7901454146" y="-89.7786136695"/>
      <point x="60.0901454146" y="-83.0527759575" type="curve" smooth="yes"/>
      <point x="78.7901454146" y="-78.0815046051"/>
      <point x="96.7932538772" y="-76.7102332528"/>
      <point x="116.473693687" y="-77.4541064472" type="curve"/>
      <point x="126.602579265" y="-79.0298291811"/>
      <point x="136.154133496" y="-78.1979796416"/>
      <point x="142.754133496" y="-76.4434132819" type="curve" smooth="yes"/>
      <point x="158.154133496" y="-72.3494251094"/>
      <point x="185.664368299" y="-48.816015124"/>
      <point x="205.594163292" y="-21.3220269515" type="curve" smooth="yes"/>
      <point x="229.520849823" y="10.6492444009"/>
      <point x="265.796891537" y="74.0750821129"/>
      <point x="268.410234803" y="87.5750821129" type="curve" smooth="yes"/>
      <point x="271.023578068" y="101.075082113"/>
      <point x="259.695601905" y="128.796238487"/>
      <point x="237.606746123" y="165.608262142" type="curve"/>
      <point x="226.333432654" y="188.221846243" type="line"/>
      <point x="224.427215728" y="194.544563063" type="line"/>
      <point x="141.88604528" y="382.60780223" type="line" smooth="yes"/>
      <point x="136.047834314" y="395.568380417"/>
      <point x="119.264286042" y="400.497109064"/>
      <point x="91.3611775796" y="396.493988173" type="curve"/>
      <point x="93.8002979606" y="409.093988173" type="line"/>
      <point x="320.400297961" y="469.334099854" type="line"/>
      <point x="317.786954695" y="455.834099854" type="line"/>
      <point x="270.138508927" y="441.45970761"/>
      <point x="252.418948736" y="430.773291711"/>
      <point x="249.282936818" y="414.573291711" type="curve" smooth="yes"/>
      <point x="247.36648509" y="404.673291711"/>
      <point x="249.501587593" y="394.143002617"/>
      <point x="253.662467212" y="383.297568977" type="curve" smooth="yes"/>
      <point x="336.08407747" y="189.226757537" type="line"/>
      <point x="490.869593552" y="465.992247018" type="line" smooth="yes"/>
      <point x="495.389153743" y="473.169530198"/>
      <point x="497.534491049" y="478.861957925"/>
      <point x="498.231382586" y="482.461957925" type="curve" smooth="yes"/>
      <point x="501.018948736" y="496.861957925"/>
      <point x="484.986954695" y="500.283114299"/>
      <point x="449.786954695" y="490.925427047" type="curve"/>
      <point x="452.400297961" y="504.425427047" type="line"/>
    </contour>
  </outline>
</glyph>
<glyph name="z" format="1">
  <advance width="444"/>
  <unicode hex="007A"/>
  <outline>
    <contour>
      <point x="456.279910612" y="335.858459782" type="line"/>
      <point x="464.4" y="224.717158309" type="line"/>
      <point x="49.7" y="15.0182259266" type="line"/>
      <point x="47.0866567346" y="26.5020118394" type="line"/>
      <point x="269.12638857" y="484.52156839" type="line"/>
      <point x="117.32638857" y="407.761746988" type="line" smooth="yes"/>
      <point x="51.3263885701" y="374.387911595"/>
      <point x="37.4397318354" y="354.560666834"/>
      <point x="40.2580023935" y="293.666833417" type="curve"/>
      <point x="20.4580023935" y="283.654682799" type="line"/>
      <point x="3.19970203935" y="375.662490416" type="line"/>
      <point x="384.899702039" y="568.674505102" type="line"/>
      <point x="387.513045305" y="557.190719189" type="line"/>
      <point x="162.173313469" y="97.5024708687" type="line"/>
      <point x="313.973313469" y="174.262292271" type="line" smooth="yes"/>
      <point x="370.073313469" y="202.630052355"/>
      <point x="405.90530751" y="228.432163958"/>
      <point x="418.343518476" y="249.234349585" type="curve" smooth="yes"/>
      <point x="429.681729442" y="269.480304621"/>
      <point x="433.494163292" y="285.0670598"/>
      <point x="435.783019074" y="328.908652075" type="curve"/>
    </contour>
  </outline>
</glyph>
